<?xml version="1.0" encoding="UTF-8"?>
<svg version="1.1" xmlns="http://www.w3.org/2000/svg" width="1280" height="800">
<path d="M0 0 C422.4 0 844.8 0 1280 0 C1280 264 1280 528 1280 800 C857.6 800 435.2 800 0 800 C0 536 0 272 0 0 Z " fill="#FDFDFD" transform="translate(0,0)"/>
<path d="M0 0 C1.06476563 -0.01611328 2.12953125 -0.03222656 3.2265625 -0.04882812 C18.87385478 -0.05832284 32.38380793 4.86769918 43.875 15.625 C50.30413556 22.53302834 55.68999757 31.87282886 56.5078125 41.39453125 C56.59160156 42.32587891 56.67539062 43.25722656 56.76171875 44.21679688 C56.84035156 45.17650391 56.91898438 46.13621094 57 47.125 C57.08636719 48.10404297 57.17273438 49.08308594 57.26171875 50.09179688 C57.47301179 52.49818978 57.67720763 54.90496612 57.875 57.3125 C59.855 55.3325 61.835 53.3525 63.875 51.3125 C61.74783505 44.43049574 59.07836469 37.85613931 56.21264648 31.25415039 C55.76127319 30.19055298 55.76127319 30.19055298 55.30078125 29.10546875 C55.02661377 28.4714917 54.75244629 27.83751465 54.4699707 27.18432617 C53.875 25.3125 53.875 25.3125 53.875 21.3125 C55.855 20.3225 57.835 19.3325 59.875 18.3125 C59.75125 17.405 59.6275 16.4975 59.5 15.5625 C59.685625 13.95375 59.685625 13.95375 59.875 12.3125 C70.55609414 4.04430363 83.65515366 1.0001383 96.875 0.3125 C97.69838867 0.26867187 98.52177734 0.22484375 99.37011719 0.1796875 C116.26059304 -0.5751941 132.55640688 0.58625649 145.9296875 12.078125 C152.16242357 18.02637934 154.33448437 22.75744223 154.875 31.3125 C155.535 31.3125 156.195 31.3125 156.875 31.3125 C156.85179687 30.18070312 156.82859375 29.04890625 156.8046875 27.8828125 C156.78593099 26.40104825 156.76773066 24.91927688 156.75 23.4375 C156.73324219 22.69113281 156.71648437 21.94476563 156.69921875 21.17578125 C156.6816041 19.22055539 156.77179811 17.26507979 156.875 15.3125 C158.875 13.3125 158.875 13.3125 162 13.1875 C162.94875 13.22875 163.8975 13.27 164.875 13.3125 C164.86339844 12.68601562 164.85179687 12.05953125 164.83984375 11.4140625 C164.83082031 10.59679687 164.82179688 9.77953125 164.8125 8.9375 C164.80089844 8.12539063 164.78929687 7.31328125 164.77734375 6.4765625 C164.875 4.3125 164.875 4.3125 165.875 2.3125 C171.62247403 2.28774446 177.36991689 2.26961362 183.11743164 2.25756836 C185.07186423 2.25254578 187.02629306 2.24572651 188.98071289 2.23706055 C191.79314093 2.22490411 194.60551919 2.21925087 197.41796875 2.21484375 C198.28898727 2.20968246 199.1600058 2.20452118 200.05741882 2.19920349 C203.41465383 2.19889443 206.46324262 2.22763318 209.76049805 2.90722656 C212.65664141 3.46231235 214.38694584 2.26333594 216.96972656 1.03759766 C220.33711506 -0.24394307 223.68948464 -0.08923297 227.25 0 C228.00168457 0.01345459 228.75336914 0.02690918 229.52783203 0.04077148 C239.29886514 0.30436707 245.24447076 2.09708216 253.39453125 7.75390625 C256.42958987 9.70865854 256.42958987 9.70865854 259.875 10.3125 C262.16966287 8.989638 262.16966287 8.989638 264.4375 7.0625 C275.72748446 -1.13501045 290.00182802 -1.11182645 303.44921875 0.828125 C304.24972656 0.98796875 305.05023437 1.1478125 305.875 1.3125 C305.875 1.9725 305.875 2.6325 305.875 3.3125 C306.596875 3.40402344 307.31875 3.49554688 308.0625 3.58984375 C314.44532941 5.22987631 320.1575493 10.74811204 323.8125 16.125 C333.75897792 34.53656552 328.60605516 59.49013318 327.15722656 79.38574219 C326.87885247 83.25889864 326.62112756 87.13298589 326.3671875 91.0078125 C326.20392139 93.38026327 326.03989607 95.75266196 325.875 98.125 C325.8042627 99.22803467 325.73352539 100.33106934 325.66064453 101.4675293 C325.58700684 102.47468994 325.51336914 103.48185059 325.4375 104.51953125 C325.37691406 105.4010083 325.31632812 106.28248535 325.25390625 107.19067383 C324.875 109.3125 324.875 109.3125 322.875 111.3125 C319.75 111.4375 319.75 111.4375 316.875 111.3125 C316.875 114.9425 316.875 118.5725 316.875 122.3125 C302.355 122.3125 287.835 122.3125 272.875 122.3125 C272.875 109.98173077 272.875 109.98173077 273.3125 104.046875 C273.40297607 102.75475098 273.49345215 101.46262695 273.58666992 100.13134766 C273.63407318 99.46645325 273.68147644 98.80155884 273.73031616 98.11651611 C274.48594557 87.38916048 275.06945697 76.69645555 275.0625 65.9375 C275.06314453 64.98198242 275.06378906 64.02646484 275.06445312 63.04199219 C275.17876222 58.52255438 275.17876222 58.52255438 273.875 54.3125 C270.84565509 53.65477572 270.84565509 53.65477572 267.875 53.3125 C267.29301699 61.56156776 266.81194513 69.79793456 266.62890625 78.06640625 C266.6039357 79.15288956 266.6039357 79.15288956 266.57846069 80.26132202 C266.51239455 83.21978103 266.44960828 86.1782098 266.39819336 89.13696289 C266.35832036 91.34287114 266.30693781 93.54828032 266.25390625 95.75390625 C266.2288501 97.03982666 266.20379395 98.32574707 266.17797852 99.65063477 C265.85432228 103.56241546 265.18905996 106.62550002 263.875 110.3125 C261.16620665 111.66689668 258.86566732 111.37751451 255.875 111.3125 C255.875 114.6125 255.875 117.9125 255.875 121.3125 C241.685 121.3125 227.495 121.3125 212.875 121.3125 C212.73774584 94.2734309 212.73774584 94.2734309 213.3125 83.5625 C213.35173584 82.82088623 213.39097168 82.07927246 213.43139648 81.31518555 C213.69503535 76.93756585 214.25521017 72.65102878 214.875 68.3125 C214.95903331 66.58487392 215.00549971 64.85465986 215 63.125 C215.00386719 61.89716797 215.00386719 61.89716797 215.0078125 60.64453125 C214.88025476 58.40476732 214.49763167 56.46206173 213.875 54.3125 C211.565 53.9825 209.255 53.6525 206.875 53.3125 C206.84407761 53.98013367 206.81315521 54.64776733 206.78129578 55.33563232 C206.45695189 62.27933029 206.11317504 69.22187178 205.75805664 76.1640625 C205.62805712 78.75561342 205.50302801 81.34741861 205.38305664 83.93945312 C205.20982671 87.66354024 205.01878702 91.38634937 204.82421875 95.109375 C204.77408127 96.26991394 204.72394379 97.43045288 204.67228699 98.62615967 C204.61245132 99.70697815 204.55261566 100.78779663 204.4909668 101.90136719 C204.44433395 102.85178894 204.39770111 103.80221069 204.34965515 104.78143311 C203.78714373 107.78098767 203.10511459 109.22343041 200.875 111.3125 C199.225 111.3125 197.575 111.3125 195.875 111.3125 C195.875 114.9425 195.875 118.5725 195.875 122.3125 C180.365 122.3125 164.855 122.3125 148.875 122.3125 C148.875 120.9925 148.875 119.6725 148.875 118.3125 C148.215 118.3125 147.555 118.3125 146.875 118.3125 C146.875 119.3025 146.875 120.2925 146.875 121.3125 C133.345 121.3125 119.815 121.3125 105.875 121.3125 C105.875 119.9925 105.875 118.6725 105.875 117.3125 C104.99457031 117.66183594 104.11414063 118.01117188 103.20703125 118.37109375 C102.04558594 118.82613281 100.88414062 119.28117187 99.6875 119.75 C98.53894531 120.20246094 97.39039063 120.65492188 96.20703125 121.12109375 C84.89092395 125.16729859 72.71527066 124.40232237 61.875 119.3125 C54.36974587 115.11338473 47.66946357 109.69589071 44.875 101.3125 C41.74142582 101.97342709 41.74142582 101.97342709 40.75 104.4375 C34.28115039 114.35640273 21.41679461 119.38448215 10.375 122.1875 C-8.8819157 125.74724165 -26.86806687 123.68421273 -43.58203125 113.10546875 C-53.7946976 105.90483303 -61.22025179 94.1233662 -63.71875 81.828125 C-66.18383768 60.49563542 -61.96990601 41.81118603 -48.77001953 24.53955078 C-40.09831351 13.9928813 -30.75774113 7.51606086 -18.125 2.3125 C-17.25359375 1.93222656 -16.3821875 1.55195313 -15.484375 1.16015625 C-10.34086409 -0.13768313 -5.28345492 -0.01565004 0 0 Z " fill="#111211" transform="translate(574.125,348.6875)"/>
<path d="M0 0 C0.81416885 -0.00622879 1.62833771 -0.01245758 2.46717834 -0.01887512 C3.77977882 -0.0050605 3.77977882 -0.0050605 5.11889648 0.0090332 C6.47047096 0.00828545 6.47047096 0.00828545 7.84934998 0.00752258 C9.75326748 0.00986247 11.65718812 0.019586 13.56103516 0.03613281 C16.48229479 0.05975223 19.40264361 0.05668989 22.32397461 0.05004883 C24.17228736 0.05562463 26.02059626 0.06273389 27.86889648 0.0715332 C28.7459877 0.0706218 29.62307892 0.06971039 30.52674866 0.06877136 C36.69646079 0.14128501 36.69646079 0.14128501 38.92749023 2.37231445 C39.12280273 4.53637695 39.12280273 4.53637695 39.05249023 6.99731445 C39.03444336 7.81458008 39.01639648 8.6318457 38.99780273 9.47387695 C38.97459961 10.10036133 38.95139648 10.7268457 38.92749023 11.37231445 C39.91749023 11.37231445 40.90749023 11.37231445 41.92749023 11.37231445 C41.90428711 10.74583008 41.88108398 10.1193457 41.85717773 9.47387695 C41.83913086 8.65661133 41.82108398 7.8393457 41.80249023 6.99731445 C41.77928711 6.18520508 41.75608398 5.3730957 41.73217773 4.53637695 C41.92749023 2.37231445 41.92749023 2.37231445 43.92749023 0.37231445 C45.93276215 0.12063217 45.93276215 0.12063217 48.44445801 0.11834717 C49.39511642 0.11270752 50.34577484 0.10706787 51.32524109 0.10125732 C52.3715419 0.10530579 53.41784271 0.10935425 54.49584961 0.11352539 C56.14469902 0.10826843 56.14469902 0.10826843 57.82685852 0.10290527 C61.47504924 0.09407369 65.12304741 0.09994222 68.77124023 0.10668945 C71.29707883 0.10534322 73.82291718 0.10340303 76.34875488 0.10089111 C81.64830221 0.09793791 86.94777996 0.10205419 92.24731445 0.11157227 C98.37875568 0.12245713 104.5100639 0.11893164 110.6415019 0.10791945 C116.53402791 0.09775898 122.4265125 0.09882286 128.31904602 0.10468292 C130.82937132 0.10602089 133.3397 0.10436659 135.85002136 0.09972382 C139.35315047 0.09466736 142.8560211 0.10235657 146.35913086 0.11352539 C147.40543167 0.10947693 148.45173248 0.10542847 149.52973938 0.10125732 C150.4803978 0.10689697 151.43105621 0.11253662 152.41052246 0.11834717 C153.2393821 0.11910122 154.06824173 0.11985527 154.92221832 0.12063217 C156.92749023 0.37231445 156.92749023 0.37231445 158.92749023 2.37231445 C159.19458604 6.74462651 158.97396539 11.11756467 158.81591797 15.49316406 C158.74065341 17.66567202 158.69140893 19.83770837 158.64428711 22.01098633 C158.60095121 23.39840656 158.55607834 24.78577982 158.50952148 26.1730957 C158.45115112 28.06282104 158.45115112 28.06282104 158.39160156 29.99072266 C157.86181229 33.85085481 156.70634517 36.59345952 153.92749023 39.37231445 C152.26131908 39.41295277 150.59360929 39.41503545 148.92749023 39.37231445 C148.92749023 42.34231445 148.92749023 45.31231445 148.92749023 48.37231445 C139.02749023 48.37231445 129.12749023 48.37231445 118.92749023 48.37231445 C118.84499023 52.20856445 118.76249023 56.04481445 118.67749023 59.99731445 C118.25724475 74.47404668 117.2985225 88.91099741 116.25695801 103.35467529 C116.07878365 105.82748606 115.90357832 108.30051252 115.73132324 110.77374268 C115.48467918 114.2904495 115.22566111 117.80601719 114.96264648 121.3215332 C114.88863113 122.39218521 114.81461578 123.46283722 114.73835754 124.56593323 C114.66163315 125.55093307 114.58490875 126.53593292 114.50585938 127.55078125 C114.41045616 128.84401558 114.41045616 128.84401558 114.31312561 130.16337585 C113.92749023 132.37231445 113.92749023 132.37231445 111.92749023 135.37231445 C108.80249023 135.55981445 108.80249023 135.55981445 105.92749023 135.37231445 C105.92749023 138.67231445 105.92749023 141.97231445 105.92749023 145.37231445 C91.07749023 145.37231445 76.22749023 145.37231445 60.92749023 145.37231445 C60.92749023 124.88720636 60.92749023 124.88720636 61.80249023 114.80981445 C61.9881255 112.49747744 62.17161629 110.18496754 62.35327148 107.87231445 C62.44817871 106.66575195 62.54308594 105.45918945 62.64086914 104.21606445 C63.16018854 97.25169941 63.57523273 90.28106806 63.98999023 83.30981445 C64.03200562 82.60671143 64.074021 81.9036084 64.11730957 81.17919922 C64.74966521 70.57848522 65.35429708 59.97638789 65.92749023 49.37231445 C56.35749023 49.37231445 46.78749023 49.37231445 36.92749023 49.37231445 C36.92749023 52.67231445 36.92749023 55.97231445 36.92749023 59.37231445 C36.76880765 61.84238855 36.57521423 64.31054609 36.34155273 66.7746582 C36.2150233 68.15729459 36.08864652 69.53994496 35.96240234 70.92260742 C35.86208206 71.99499664 35.86208206 71.99499664 35.75973511 73.08905029 C34.79048626 83.47518466 33.90779417 93.85730396 33.35327148 104.2746582 C33.2892514 105.47375069 33.2892514 105.47375069 33.22393799 106.69706726 C33.02209991 110.55171657 32.83481396 114.40662543 32.66235352 118.26269531 C32.59328362 119.6612193 32.52411565 121.05973844 32.45483398 122.45825195 C32.40061279 123.67561035 32.3463916 124.89296875 32.29052734 126.1472168 C31.91328932 129.49847057 31.40480404 132.89500065 28.92749023 135.37231445 C26.9279066 135.41312228 24.92703769 135.41485802 22.92749023 135.37231445 C22.92749023 138.67231445 22.92749023 141.97231445 22.92749023 145.37231445 C8.07749023 145.37231445 -6.77250977 145.37231445 -22.07250977 145.37231445 C-22.07250977 124.9576775 -22.07250977 124.9576775 -21.19750977 116.30981445 C-20.29592788 106.52684606 -19.63768107 96.74158845 -19.07250977 86.93481445 C-18.4519218 76.23963978 -17.72956379 65.56175725 -16.82470703 54.88623047 C-16.32243249 48.84461349 -15.89982263 42.80254843 -15.53735352 36.7512207 C-15.49301178 36.0143956 -15.44867004 35.2775705 -15.40298462 34.51841736 C-15.18470783 30.86779426 -14.97317426 27.21691113 -14.76977539 23.56542969 C-14.69307617 22.25388916 -14.61637695 20.94234863 -14.53735352 19.59106445 C-14.43861938 17.82666016 -14.43861938 17.82666016 -14.33789062 16.02661133 C-14.07250977 13.37231445 -14.07250977 13.37231445 -13.07250977 12.37231445 C-11.07292613 12.33150662 -9.07205723 12.32977089 -7.07250977 12.37231445 C-7.10731445 11.75743164 -7.14211914 11.14254883 -7.17797852 10.5090332 C-7.20504883 9.70079102 -7.23211914 8.89254883 -7.26000977 8.05981445 C-7.29481445 7.25930664 -7.32961914 6.45879883 -7.36547852 5.6340332 C-6.79716748 1.246672 -4.14757323 -0.00364777 0 0 Z " fill="#121111" transform="translate(375.072509765625,324.627685546875)"/>
<path d="M0 0 C2.02172062 1.68769721 3.90085752 3.31837141 5.62109375 5.3125 C5.62109375 5.9725 5.62109375 6.6325 5.62109375 7.3125 C9.68325902 4.95382339 13.55740393 2.35761282 17.4375 -0.28515625 C27.3816366 -6.67146222 42.67614044 -6.37362619 54.0078125 -3.96875 C56.40687698 -3.05761985 58.46092942 -2.06584753 60.62109375 -0.6875 C61.19601562 -0.32527344 61.7709375 0.03695313 62.36328125 0.41015625 C68.75932476 5.10377027 71.79202243 11.82546354 73.62109375 19.3125 C73.78300895 22.05259014 73.85509292 24.66906417 73.8046875 27.40234375 C73.79731064 28.17617905 73.78993378 28.95001434 73.78233337 29.74729919 C73.65243472 39.46481734 73.16742972 49.17002121 72.68359375 58.875 C72.59533244 60.72068544 72.50744082 62.56638859 72.41992188 64.41210938 C71.8926679 75.38423753 71.26621583 86.34542472 70.62109375 97.3125 C58.08109375 97.3125 45.54109375 97.3125 32.62109375 97.3125 C32.83765625 90.50625 32.83765625 90.50625 33.05859375 83.5625 C33.10169678 82.15774414 33.1447998 80.75298828 33.18920898 79.30566406 C33.37936963 73.57913496 33.62092191 67.88264745 34.140625 62.17578125 C34.70515054 55.8647568 34.84080601 49.58392285 34.87109375 43.25 C34.89171875 42.13689453 34.91234375 41.02378906 34.93359375 39.87695312 C34.93875 38.81283203 34.94390625 37.74871094 34.94921875 36.65234375 C34.95856445 35.69706787 34.96791016 34.74179199 34.97753906 33.75756836 C34.55908103 30.88711826 33.90574977 30.03641472 31.62109375 28.3125 C28.5928932 27.22680794 25.81634394 26.96277112 22.62109375 27.3125 C18.76589526 29.30181146 16.2967993 31.73696717 14.58398438 35.73071289 C13.25959463 40.65721441 13.06011005 45.47370453 12.8046875 50.5546875 C12.74330093 51.63702667 12.68191437 52.71936584 12.6186676 53.83450317 C12.42421416 57.28512317 12.24086119 60.73621672 12.05859375 64.1875 C11.87084853 67.63150418 11.68073442 71.07535566 11.48780823 74.51907349 C11.36859121 76.65810554 11.25264789 78.79732338 11.14048767 80.93673706 C11.08695633 81.91780426 11.03342499 82.89887146 10.97827148 83.90966797 C10.93322983 84.76205048 10.88818817 85.61443298 10.84178162 86.49264526 C10.55859522 90.11107931 10.07127764 93.71102892 9.62109375 97.3125 C-2.58890625 97.3125 -14.79890625 97.3125 -27.37890625 97.3125 C-27.37890625 87.28856204 -27.14946873 77.57689948 -26.37890625 67.625 C-25.74688813 58.65034267 -25.13958107 49.68528445 -25.00390625 40.6875 C-24.978125 39.88352783 -24.95234375 39.07955566 -24.92578125 38.2512207 C-24.91364743 34.79118587 -25.10965126 32.70380907 -27.09375 29.8203125 C-31.04511443 27.21308742 -34.82516763 27.63129032 -39.37890625 28.3125 C-42.81613919 29.8069491 -43.92410873 31.2959061 -45.43945312 34.68310547 C-48.41296646 42.94739278 -48.96082738 50.45339445 -49.00390625 59.1875 C-49.04660425 61.91561029 -49.1042844 64.64330988 -49.1640625 67.37109375 C-49.17749191 68.04384842 -49.19092133 68.71660309 -49.20475769 69.40974426 C-49.41740616 78.76393562 -50.41656521 88.00986993 -51.37890625 97.3125 C-63.58890625 97.3125 -75.79890625 97.3125 -88.37890625 97.3125 C-89.50407653 91.68664862 -89.50407653 91.68664862 -89.23291016 88.28833008 C-89.17600006 87.53437454 -89.11908997 86.78041901 -89.06045532 86.00361633 C-88.99280975 85.20449326 -88.92516418 84.40537018 -88.85546875 83.58203125 C-88.78983734 82.75039963 -88.72420593 81.91876801 -88.65658569 81.06193542 C-88.51688275 79.31096098 -88.37379825 77.56025344 -88.22753906 75.80981445 C-88.00386249 73.12447461 -87.79213505 70.43838549 -87.58203125 67.75195312 C-87.44471439 66.04942224 -87.30671721 64.34694606 -87.16796875 62.64453125 C-87.07257309 61.43673759 -87.07257309 61.43673759 -86.97525024 60.20454407 C-86.49461383 54.54391517 -86.49461383 54.54391517 -85.37890625 52.3125 C-85.236648 50.31666809 -85.15265898 48.31654553 -85.09765625 46.31640625 C-85.06027344 45.11822266 -85.02289062 43.92003906 -84.984375 42.68554688 C-84.93216797 40.79932617 -84.93216797 40.79932617 -84.87890625 38.875 C-84.8101088 36.39701763 -84.73737741 33.91914042 -84.66015625 31.44140625 C-84.6147168 29.78733765 -84.6147168 29.78733765 -84.56835938 28.09985352 C-84.37890625 25.3125 -84.37890625 25.3125 -83.37890625 22.3125 C-83.16282279 20.39580242 -82.99019205 18.47405357 -82.84375 16.55078125 C-82.72567993 15.03931519 -82.72567993 15.03931519 -82.60522461 13.49731445 C-82.50991455 12.21945068 -82.41460449 10.94158691 -82.31640625 9.625 C-82.00703125 5.561875 -81.69765625 1.49875 -81.37890625 -2.6875 C-69.82890625 -2.6875 -58.27890625 -2.6875 -46.37890625 -2.6875 C-46.37890625 -0.3775 -46.37890625 1.9325 -46.37890625 4.3125 C-45.92 3.90257812 -45.46109375 3.49265625 -44.98828125 3.0703125 C-44.3746875 2.53148437 -43.76109375 1.99265625 -43.12890625 1.4375 C-42.525625 0.90382813 -41.92234375 0.37015625 -41.30078125 -0.1796875 C-31.47539173 -7.8882248 -10.06525273 -7.13988371 0 0 Z " fill="#FBFBFB" transform="translate(824.37890625,358.6875)"/>
<path d="M0 0 C0.70833984 0.01224609 1.41667969 0.02449219 2.14648438 0.03710938 C4.13950887 0.07920264 6.13227802 0.13293256 8.125 0.1875 C8.94226563 0.17074219 9.75953125 0.15398437 10.6015625 0.13671875 C21.61189262 0.41303978 33.52648679 8.49805595 41.07421875 15.90625 C49.61682542 25.40888295 52.35302087 34.26830006 52.4375 46.875 C52.44313965 47.68308105 52.4487793 48.49116211 52.45458984 49.32373047 C52.39096961 54.5697042 51.65319036 57.83883375 50.125 63.1875 C28.345 63.1875 6.565 63.1875 -15.875 63.1875 C-12.7704082 69.3966836 -11.28272118 71.94717082 -4.875 74.1875 C4.28072377 75.43921968 11.67888964 74.82368162 19.125 69.1875 C20.23294922 68.36185547 20.23294922 68.36185547 21.36328125 67.51953125 C21.94464844 67.07996094 22.52601563 66.64039063 23.125 66.1875 C27.47698942 67.81558237 30.04206256 71.06637506 33.0625 74.4375 C33.57490234 74.99824219 34.08730469 75.55898438 34.61523438 76.13671875 C36.13355107 77.80744589 37.62931946 79.49651572 39.125 81.1875 C39.62918457 81.73341797 40.13336914 82.27933594 40.65283203 82.84179688 C42.06640625 84.421875 42.06640625 84.421875 44.125 87.1875 C42.3936663 92.38150109 37.72537685 94.54592108 33.125 97.1875 C16.24692222 105.11762989 -1.83848588 108.17397833 -19.875 102.1875 C-33.21818993 97.36078339 -43.34296418 89.40810466 -49.51635742 76.58618164 C-56.42510007 61.51201816 -56.47535933 47.19273524 -50.94921875 31.5703125 C-45.94344246 20.17534538 -35.94462668 10.63420488 -24.875 5.1875 C-21.58262265 3.93417919 -18.29354033 3.02063483 -14.875 2.1875 C-13.23917969 1.6615625 -13.23917969 1.6615625 -11.5703125 1.125 C-7.63755185 0.12725945 -4.02325975 -0.08131709 0 0 Z " fill="#FAFAF9" transform="translate(574.875,352.8125)"/>
<path d="M0 0 C1.32499512 -0.01389771 1.32499512 -0.01389771 2.67675781 -0.02807617 C14.51572987 0.02877765 27.08494755 3.83358019 36.43359375 11.30859375 C45.11373571 20.91667962 45.41990924 31.81941419 45.4375 44 C45.43983643 44.73055603 45.44217285 45.46111206 45.44458008 46.21380615 C45.46727089 65.29523104 43.837684 84.25323892 42.1875 103.25 C30.9675 103.25 19.7475 103.25 8.1875 103.25 C8.1875 100.61 8.1875 97.97 8.1875 95.25 C7.60742188 95.64832031 7.02734375 96.04664063 6.4296875 96.45703125 C-4.20086528 103.6668616 -13.68765998 107.30501114 -26.8125 105.25 C-34.7397195 102.89744425 -43.22141783 98.26486577 -47.8125 91.25 C-52.51166937 82.05649685 -54.45172428 73.74086089 -51.8125 63.6875 C-48.66169901 55.32974151 -41.68055976 49.13810735 -33.8125 45.25 C-26.99369523 42.18797069 -20.59677979 41.11796202 -13.1015625 41.15234375 C-11.85761719 41.15556641 -10.61367188 41.15878906 -9.33203125 41.16210938 C-8.04683594 41.17048828 -6.76164063 41.17886719 -5.4375 41.1875 C-4.12910156 41.19201172 -2.82070313 41.19652344 -1.47265625 41.20117188 C1.74744281 41.21292406 4.9674477 41.22935457 8.1875 41.25 C7.90543322 39.94450342 7.6115145 38.64156312 7.3125 37.33984375 C7.15007813 36.614021 6.98765625 35.88819824 6.8203125 35.14038086 C6.32698088 33.05464237 6.32698088 33.05464237 4.1875 31.8125 C3.5275 31.626875 2.8675 31.44125 2.1875 31.25 C1.5275 30.92 0.8675 30.59 0.1875 30.25 C-12.03312333 29.56669633 -20.536463 30.15464112 -30.8125 37.25 C-31.4725 37.25 -32.1325 37.25 -32.8125 37.25 C-33.00884033 36.70585449 -33.20518066 36.16170898 -33.4074707 35.60107422 C-34.30955926 33.10767283 -35.21723204 30.61633902 -36.125 28.125 C-36.5880957 26.84109375 -36.5880957 26.84109375 -37.06054688 25.53125 C-38.40767791 21.84436505 -39.77206361 18.33014256 -41.54296875 14.8203125 C-42.8125 12.25 -42.8125 12.25 -42.8125 9.25 C-39.49152866 7.88417254 -36.15779204 6.55513506 -32.8125 5.25 C-32.08289063 4.96511719 -31.35328125 4.68023437 -30.6015625 4.38671875 C-20.64021786 0.77619421 -10.51185788 0.06879488 0 0 Z " fill="#F9FAF9" transform="translate(681.8125,352.75)"/>
<path d="M0 0 C35.97 0 71.94 0 109 0 C109 18 109 18 108 30 C95.79 30 83.58 30 71 30 C71 32.97 71 35.94 71 39 C70.89083103 41.31511316 70.75793639 43.62926934 70.59765625 45.94140625 C70.51193359 47.18470703 70.42621094 48.42800781 70.33789062 49.70898438 C70.24701172 50.98064453 70.15613281 52.25230469 70.0625 53.5625 C69.97548828 54.83802734 69.88847656 56.11355469 69.79882812 57.42773438 C69.12428765 67.05617503 69.12428765 67.05617503 68.51367188 71.69311523 C67.82774342 77.01681333 67.55382651 82.36219571 67.24609375 87.71875 C67.18092056 88.81723267 67.11574738 89.91571533 67.04859924 91.04748535 C66.84245146 94.53151771 66.63992158 98.01574937 66.4375 101.5 C66.29776551 103.87240995 66.15779405 106.24480596 66.01757812 108.6171875 C65.67519996 114.41127944 65.33772187 120.20562731 65 126 C52.13 126 39.26 126 26 126 C27.45672785 93.95198728 29.62597018 61.99178042 32 30 C21.11 30 10.22 30 -1 30 C-1.020625 27.091875 -1.04125 24.18375 -1.0625 21.1875 C-1.071604 20.29571045 -1.08070801 19.4039209 -1.09008789 18.48510742 C-1.11119194 12.19814181 -0.57593746 6.33531203 0 0 Z " fill="#FAFAFA" transform="translate(420,330)"/>
<path d="M0 0 C12.54 0 25.08 0 38 0 C38 21.44885302 38 21.44885302 36.6328125 32.03125 C35.38278765 42.66865501 34.49286211 53.28040109 33.8671875 63.96875 C33.80401714 65.04488556 33.80401714 65.04488556 33.73957062 66.14276123 C33.48467451 70.52202033 33.23975584 74.90179501 32.99804688 79.28179932 C32.70919102 84.48908516 32.4092659 89.69574774 32.11038208 94.90246582 C31.95270689 97.64931079 31.79846284 100.39627412 31.64620972 103.14343262 C31.57588531 104.39354126 31.50556091 105.6436499 31.43310547 106.93164062 C31.37331512 108.01078735 31.31352478 109.08993408 31.25192261 110.20178223 C30.90231546 115.47278222 30.43869451 120.73566593 30 126 C17.13 126 4.26 126 -9 126 C-8.5536977 108.95125206 -7.74848852 92.00555977 -6.5 75 C-6.43428802 74.09210724 -6.36857605 73.18421448 -6.3008728 72.24880981 C-6.11107555 69.64470191 -5.91609826 67.04104557 -5.71875 64.4375 C-5.66145218 63.65841782 -5.60415436 62.87933563 -5.54512024 62.0766449 C-5.32125162 59.20720776 -5.08140047 56.39503872 -4.5 53.57348633 C-3.7171255 49.54405268 -3.54489952 45.47863614 -3.28125 41.38671875 C-3.21844849 40.45833694 -3.15564697 39.52995514 -3.09094238 38.57344055 C-2.89085917 35.61165869 -2.6950504 32.64961725 -2.5 29.6875 C-2.30460832 26.7361207 -2.10821414 23.78482221 -1.90905762 20.83369446 C-1.78544234 19.00066587 -1.66398102 17.1674903 -1.54504395 15.33415222 C-1.48828491 14.49000259 -1.43152588 13.64585297 -1.37304688 12.77612305 C-1.30096008 11.67955635 -1.30096008 11.67955635 -1.22741699 10.56083679 C-0.91392543 7.03075443 -0.43957599 3.51660794 0 0 Z " fill="#FAFAFB" transform="translate(372,330)"/>
<path d="M0 0 C1.12752686 0.02018188 1.12752686 0.02018188 2.27783203 0.04077148 C12.04886514 0.30436707 17.99447076 2.09708216 26.14453125 7.75390625 C29.17958987 9.70865854 29.17958987 9.70865854 32.625 10.3125 C34.91966287 8.989638 34.91966287 8.989638 37.1875 7.0625 C48.47748446 -1.13501045 62.75182802 -1.11182645 76.19921875 0.828125 C76.99972656 0.98796875 77.80023437 1.1478125 78.625 1.3125 C78.625 1.9725 78.625 2.6325 78.625 3.3125 C79.346875 3.40402344 80.06875 3.49554688 80.8125 3.58984375 C87.19532941 5.22987631 92.9075493 10.74811204 96.5625 16.125 C106.50897792 34.53656552 101.35605516 59.49013318 99.90722656 79.38574219 C99.62885247 83.25889864 99.37112756 87.13298589 99.1171875 91.0078125 C98.95392139 93.38026327 98.78989607 95.75266196 98.625 98.125 C98.5542627 99.22803467 98.48352539 100.33106934 98.41064453 101.4675293 C98.33700684 102.47468994 98.26336914 103.48185059 98.1875 104.51953125 C98.12691406 105.4010083 98.06632813 106.28248535 98.00390625 107.19067383 C97.625 109.3125 97.625 109.3125 95.625 111.3125 C92.5 111.4375 92.5 111.4375 89.625 111.3125 C89.625 114.9425 89.625 118.5725 89.625 122.3125 C75.105 122.3125 60.585 122.3125 45.625 122.3125 C45.625 109.98173077 45.625 109.98173077 46.0625 104.046875 C46.15297607 102.75475098 46.24345215 101.46262695 46.33666992 100.13134766 C46.38407318 99.46645325 46.43147644 98.80155884 46.48031616 98.11651611 C47.23594557 87.38916048 47.81945697 76.69645555 47.8125 65.9375 C47.8134668 64.50422363 47.8134668 64.50422363 47.81445312 63.04199219 C47.92876222 58.52255438 47.92876222 58.52255438 46.625 54.3125 C43.59565509 53.65477572 43.59565509 53.65477572 40.625 53.3125 C40.04301699 61.56156776 39.56194513 69.79793456 39.37890625 78.06640625 C39.36225922 78.79072845 39.34561218 79.51505066 39.32846069 80.26132202 C39.26239455 83.21978103 39.19960828 86.1782098 39.14819336 89.13696289 C39.10832036 91.34287114 39.05693781 93.54828032 39.00390625 95.75390625 C38.96632202 97.68278687 38.96632202 97.68278687 38.92797852 99.65063477 C38.60827069 103.51469415 37.80982488 106.63832812 36.625 110.3125 C35.965 109.3225 35.305 108.3325 34.625 107.3125 C34.295 107.6425 33.965 107.9725 33.625 108.3125 C31.43860547 108.38508946 29.24999611 108.39623783 27.0625 108.375 C25.26619141 108.36146484 25.26619141 108.36146484 23.43359375 108.34765625 C22.04333984 108.33025391 22.04333984 108.33025391 20.625 108.3125 C20.625 107.9825 20.625 107.6525 20.625 107.3125 C24.585 107.3125 28.545 107.3125 32.625 107.3125 C32.69847656 104.80269531 32.69847656 104.80269531 32.7734375 102.2421875 C33.18188162 89.15202823 33.72054372 76.07324085 34.5 63 C34.59933838 61.10773682 34.59933838 61.10773682 34.70068359 59.17724609 C35.19354085 51.42288855 35.65530603 44.34777761 41.75 38.8125 C44.66772976 36.4956615 46.596758 35.93039759 50.3125 36.1875 C52.99436266 36.55905469 54.56901743 37.27745004 56.87109375 38.71875 C59.68637578 42.88210695 59.12369669 47.03047931 59 51.9375 C58.98638428 53.01112793 58.97276855 54.08475586 58.95874023 55.19091797 C58.6382229 72.48910471 58.07225753 90.18169732 55.625 107.3125 C68.165 107.3125 80.705 107.3125 93.625 107.3125 C93.625 101.7025 93.625 96.0925 93.625 90.3125 C93.73944451 86.82696462 93.87133149 83.35886409 94.0625 79.87890625 C94.10689209 78.99122055 94.15128418 78.10353485 94.19702148 77.18894958 C94.38181678 73.49501254 94.57627004 69.80160506 94.77050781 66.1081543 C95.26914625 56.52632479 95.72184645 46.9514459 95.79296875 37.35546875 C95.80849792 36.27091148 95.80849792 36.27091148 95.82434082 35.16444397 C95.82665991 27.32910055 93.61546704 21.47383001 89.5 14.9375 C81.74816335 7.85973611 73.49903028 6.13190589 63.375 6.125 C62.44558594 6.11275391 61.51617188 6.10050781 60.55859375 6.08789062 C50.68103563 6.066934 41.88344826 8.44729026 34.3125 15.0625 C31.625 17.3125 31.625 17.3125 28.625 17.3125 C27.46047055 15.84852012 26.29734007 14.38338323 25.14453125 12.91015625 C20.29555741 7.81187785 13.45717915 6.43367781 6.69921875 6.14453125 C5.23701282 6.13266484 3.77475351 6.12628606 2.3125 6.125 C1.59126953 6.11275391 0.87003906 6.10050781 0.12695312 6.08789062 C-7.72373458 6.0667677 -13.96406372 7.50429779 -20.375 12.3125 C-21.15875 12.89 -21.9425 13.4675 -22.75 14.0625 C-23.28625 14.475 -23.8225 14.8875 -24.375 15.3125 C-24.045 12.6725 -23.715 10.0325 -23.375 7.3125 C-34.925 7.3125 -46.475 7.3125 -58.375 7.3125 C-58.705 15.5625 -59.035 23.8125 -59.375 32.3125 C-59.705 32.3125 -60.035 32.3125 -60.375 32.3125 C-60.40220824 29.62493045 -60.4219388 26.93764202 -60.4375 24.25 C-60.44587891 23.49783203 -60.45425781 22.74566406 -60.46289062 21.97070312 C-60.48308341 17.30616882 -60.15095959 12.91326827 -59.375 8.3125 C-60.035 8.3125 -60.695 8.3125 -61.375 8.3125 C-61.375 10.2925 -61.375 12.2725 -61.375 14.3125 C-63.685 14.3125 -65.995 14.3125 -68.375 14.3125 C-68.375 13.9825 -68.375 13.6525 -68.375 13.3125 C-66.395 13.3125 -64.415 13.3125 -62.375 13.3125 C-62.38660156 12.68601562 -62.39820313 12.05953125 -62.41015625 11.4140625 C-62.41917969 10.59679687 -62.42820312 9.77953125 -62.4375 8.9375 C-62.44910156 8.12539063 -62.46070313 7.31328125 -62.47265625 6.4765625 C-62.375 4.3125 -62.375 4.3125 -61.375 2.3125 C-55.62752597 2.28774446 -49.88008311 2.26961362 -44.13256836 2.25756836 C-42.17813577 2.25254578 -40.22370694 2.24572651 -38.26928711 2.23706055 C-35.45685907 2.22490411 -32.64448081 2.21925087 -29.83203125 2.21484375 C-28.96101273 2.20968246 -28.0899942 2.20452118 -27.19258118 2.19920349 C-23.83534617 2.19889443 -20.78675738 2.22763318 -17.48950195 2.90722656 C-14.59335859 3.46231235 -12.86305416 2.26333594 -10.28027344 1.03759766 C-6.91288494 -0.24394307 -3.56051536 -0.08923297 0 0 Z " fill="#141414" transform="translate(801.375,348.6875)"/>
<path d="M0 0 C1.51289503 0.00031716 3.0258126 0.01164445 4.53857422 0.03173828 C5.33480194 0.03456818 6.13102966 0.03739807 6.9513855 0.04031372 C9.49882935 0.05152438 12.04592383 0.07663016 14.59326172 0.10205078 C16.31851706 0.11207945 18.04377791 0.1212055 19.76904297 0.12939453 C24.00225086 0.15146656 28.23519702 0.18600212 32.46826172 0.22705078 C32.46826172 0.88705078 32.46826172 1.54705078 32.46826172 2.22705078 C25.68901478 3.4116769 18.89879226 3.56099112 12.03076172 3.78955078 C10.82226562 3.83273437 9.61376953 3.87591797 8.36865234 3.92041016 C5.40195566 4.02594482 2.4351827 4.12805792 -0.53173828 4.22705078 C-1.01646278 9.35154181 -1.49532092 14.47655078 -1.96923828 19.60205078 C-2.03898865 20.35603149 -2.10873901 21.11001221 -2.18060303 21.88684082 C-3.10250503 31.90639653 -3.90674763 41.90584921 -4.32080078 51.96142578 C-4.53173828 55.22705078 -4.53173828 55.22705078 -5.00219727 57.40380859 C-5.70257786 61.13788015 -5.95245392 64.88033378 -6.21533203 68.66455078 C-6.30509308 69.90284386 -6.30509308 69.90284386 -6.39666748 71.16615295 C-6.59060668 73.85290775 -6.77999656 76.53996139 -6.96923828 79.22705078 C-7.10156928 81.07399163 -7.23413905 82.92091539 -7.36694336 84.76782227 C-7.76018784 90.25388445 -8.14714089 95.74037624 -8.53173828 101.22705078 C-8.58821533 102.03249329 -8.64469238 102.83793579 -8.70288086 103.66778564 C-9.32279783 112.52019072 -9.92913631 121.37343714 -10.53173828 130.22705078 C2.33826172 130.22705078 15.20826172 130.22705078 28.46826172 130.22705078 C28.46826172 126.26705078 28.46826172 122.30705078 28.46826172 118.22705078 C29.12826172 118.22705078 29.78826172 118.22705078 30.46826172 118.22705078 C30.44505859 117.23447266 30.42185547 116.24189453 30.39794922 115.21923828 C30.25186804 105.99786385 30.87426511 97.33560282 32.46826172 88.22705078 C32.79826172 88.22705078 33.12826172 88.22705078 33.46826172 88.22705078 C33.67233609 100.25017113 33.69519148 112.18561072 32.53076172 124.16455078 C32.44391113 125.06326904 32.35706055 125.9619873 32.26757812 126.88793945 C31.61055104 133.08476146 31.61055104 133.08476146 30.46826172 134.22705078 C28.46867808 134.26785861 26.46780918 134.26959434 24.46826172 134.22705078 C24.46826172 137.52705078 24.46826172 140.82705078 24.46826172 144.22705078 C9.61826172 144.22705078 -5.23173828 144.22705078 -20.53173828 144.22705078 C-20.53173828 123.81241383 -20.53173828 123.81241383 -19.65673828 115.16455078 C-18.7551564 105.38158238 -18.09690959 95.59632478 -17.53173828 85.78955078 C-16.91115031 75.09437611 -16.18879231 64.41649357 -15.28393555 53.7409668 C-14.781661 47.69934981 -14.35905114 41.65728475 -13.99658203 35.60595703 C-13.9522403 34.86913193 -13.90789856 34.13230682 -13.86221313 33.37315369 C-13.64393634 29.72253059 -13.43240277 26.07164746 -13.22900391 22.42016602 C-13.15230469 21.10862549 -13.07560547 19.79708496 -12.99658203 18.44580078 C-12.8978479 16.68139648 -12.8978479 16.68139648 -12.79711914 14.88134766 C-12.53173828 12.22705078 -12.53173828 12.22705078 -11.53173828 11.22705078 C-9.53215464 11.18624295 -7.53128574 11.18450722 -5.53173828 11.22705078 C-5.55494141 10.60056641 -5.57814453 9.97408203 -5.60205078 9.32861328 C-5.62009766 8.51134766 -5.63814453 7.69408203 -5.65673828 6.85205078 C-5.67994141 6.03994141 -5.70314453 5.22783203 -5.72705078 4.39111328 C-5.36777709 0.41036081 -3.76058557 0.24176307 0 0 Z " fill="#0C0E0D" transform="translate(373.53173828125,325.77294921875)"/>
<path d="M0 0 C4.48404564 -0.024759 8.96805481 -0.04288799 13.45214844 -0.05493164 C14.97689507 -0.05995365 16.50163691 -0.0667725 18.02636719 -0.07543945 C20.22071519 -0.08759849 22.4149994 -0.09324968 24.609375 -0.09765625 C26.5888916 -0.10551147 26.5888916 -0.10551147 28.60839844 -0.11352539 C31.30948418 -0.02311329 33.4500616 0.18118645 36 1 C36 1.66 36 2.32 36 3 C34.68 3 33.36 3 32 3 C32 6.3 32 9.6 32 13 C22.43 13 12.86 13 3 13 C2.9175 16.83625 2.835 20.6725 2.75 24.625 C2.32975452 39.10173223 1.37103226 53.53868295 0.32946777 67.98236084 C0.15129342 70.45517161 -0.02391191 72.92819807 -0.19616699 75.40142822 C-0.44281106 78.91813504 -0.70182913 82.43370273 -0.96484375 85.94921875 C-1.0388591 87.01987076 -1.11287445 88.09052277 -1.18913269 89.19361877 C-1.26585709 90.17861862 -1.34258148 91.16361847 -1.42163086 92.1784668 C-1.51703407 93.47170113 -1.51703407 93.47170113 -1.61436462 94.7910614 C-2 97 -2 97 -4 100 C-7.125 100.1875 -7.125 100.1875 -10 100 C-10 103.3 -10 106.6 -10 110 C-24.85 110 -39.7 110 -55 110 C-54.67 109.01 -54.34 108.02 -54 107 C-53.01 106.505 -53.01 106.505 -52 106 C-52.0825 105.0925 -52.165 104.185 -52.25 103.25 C-52 100 -52 100 -50.58300781 97.82128906 C-46.67145966 95.06324093 -43.0934111 95.50198216 -38.421875 95.609375 C-37.4953009 95.61503479 -36.56872681 95.62069458 -35.61407471 95.62652588 C-32.65885438 95.64889079 -29.70485295 95.69908738 -26.75 95.75 C-24.7448092 95.77006485 -22.73959936 95.78831565 -20.734375 95.8046875 C-15.82244806 95.848756 -10.91143058 95.91778445 -6 96 C-6.01015137 94.80318604 -6.02030273 93.60637207 -6.03076172 92.37329102 C-6.09090983 82.18200217 -5.85686088 72.10619572 -5.125 61.9375 C-5.03344503 60.60639201 -4.94230856 59.27525518 -4.8515625 57.9440918 C-4.57751078 53.96199103 -4.28958206 49.98100182 -4 46 C-3.91459961 44.80729492 -3.82919922 43.61458984 -3.74121094 42.38574219 C-2.72137967 28.23208386 -1.49712369 14.11118713 0 0 Z " fill="#1A1A19" transform="translate(491,360)"/>
<path d="M0 0 C1.12752686 0.02018188 1.12752686 0.02018188 2.27783203 0.04077148 C12.04886514 0.30436707 17.99447076 2.09708216 26.14453125 7.75390625 C29.17958987 9.70865854 29.17958987 9.70865854 32.625 10.3125 C34.91966287 8.989638 34.91966287 8.989638 37.1875 7.0625 C48.47748446 -1.13501045 62.75182802 -1.11182645 76.19921875 0.828125 C76.99972656 0.98796875 77.80023437 1.1478125 78.625 1.3125 C78.625 1.9725 78.625 2.6325 78.625 3.3125 C79.346875 3.40402344 80.06875 3.49554688 80.8125 3.58984375 C87.19532941 5.22987631 92.9075493 10.74811204 96.5625 16.125 C106.5084946 34.53567085 101.35616635 59.48666769 99.90722656 79.38134766 C99.62821918 83.26765989 99.37072343 87.15492075 99.1171875 91.04296875 C98.95390752 93.42453295 98.78988141 95.80604614 98.625 98.1875 C98.51889404 99.85462036 98.51889404 99.85462036 98.41064453 101.55541992 C98.33700684 102.56580322 98.26336914 103.57618652 98.1875 104.6171875 C98.12691406 105.50390137 98.06632813 106.39061523 98.00390625 107.30419922 C97.87886719 107.96693848 97.75382813 108.62967773 97.625 109.3125 C96.635 109.8075 96.635 109.8075 95.625 110.3125 C95.625 108.0025 95.625 105.6925 95.625 103.3125 C94.635 105.2925 94.635 105.2925 93.625 107.3125 C93.46171806 93.54125553 94.04742144 79.85771448 94.77050781 66.1081543 C95.26914625 56.52632479 95.72184645 46.9514459 95.79296875 37.35546875 C95.80849792 36.27091148 95.80849792 36.27091148 95.82434082 35.16444397 C95.82665991 27.32910055 93.61546704 21.47383001 89.5 14.9375 C81.74816335 7.85973611 73.49903028 6.13190589 63.375 6.125 C62.44558594 6.11275391 61.51617188 6.10050781 60.55859375 6.08789062 C50.68103563 6.066934 41.88344826 8.44729026 34.3125 15.0625 C31.625 17.3125 31.625 17.3125 28.625 17.3125 C27.46047055 15.84852012 26.29734007 14.38338323 25.14453125 12.91015625 C20.29555741 7.81187785 13.45717915 6.43367781 6.69921875 6.14453125 C5.23701282 6.13266484 3.77475351 6.12628606 2.3125 6.125 C1.59126953 6.11275391 0.87003906 6.10050781 0.12695312 6.08789062 C-7.72373458 6.0667677 -13.96406372 7.50429779 -20.375 12.3125 C-21.15875 12.89 -21.9425 13.4675 -22.75 14.0625 C-23.28625 14.475 -23.8225 14.8875 -24.375 15.3125 C-24.045 12.6725 -23.715 10.0325 -23.375 7.3125 C-34.925 7.3125 -46.475 7.3125 -58.375 7.3125 C-58.705 15.5625 -59.035 23.8125 -59.375 32.3125 C-59.705 32.3125 -60.035 32.3125 -60.375 32.3125 C-60.40220824 29.62493045 -60.4219388 26.93764202 -60.4375 24.25 C-60.44587891 23.49783203 -60.45425781 22.74566406 -60.46289062 21.97070312 C-60.48308341 17.30616882 -60.15095959 12.91326827 -59.375 8.3125 C-60.035 8.3125 -60.695 8.3125 -61.375 8.3125 C-61.375 10.2925 -61.375 12.2725 -61.375 14.3125 C-63.685 14.3125 -65.995 14.3125 -68.375 14.3125 C-68.375 13.9825 -68.375 13.6525 -68.375 13.3125 C-66.395 13.3125 -64.415 13.3125 -62.375 13.3125 C-62.38660156 12.68601562 -62.39820313 12.05953125 -62.41015625 11.4140625 C-62.41917969 10.59679687 -62.42820312 9.77953125 -62.4375 8.9375 C-62.44910156 8.12539063 -62.46070313 7.31328125 -62.47265625 6.4765625 C-62.375 4.3125 -62.375 4.3125 -61.375 2.3125 C-55.62752597 2.28774446 -49.88008311 2.26961362 -44.13256836 2.25756836 C-42.17813577 2.25254578 -40.22370694 2.24572651 -38.26928711 2.23706055 C-35.45685907 2.22490411 -32.64448081 2.21925087 -29.83203125 2.21484375 C-28.96101273 2.20968246 -28.0899942 2.20452118 -27.19258118 2.19920349 C-23.83534617 2.19889443 -20.78675738 2.22763318 -17.48950195 2.90722656 C-14.59335859 3.46231235 -12.86305416 2.26333594 -10.28027344 1.03759766 C-6.91288494 -0.24394307 -3.56051536 -0.08923297 0 0 Z " fill="#1B1B1B" transform="translate(801.375,348.6875)"/>
<path d="M0 0 C5.80239614 -0.04934656 11.60467081 -0.08569402 17.40722656 -0.10986328 C19.38218309 -0.11993627 21.35712466 -0.13359521 23.33203125 -0.15087891 C26.16670418 -0.17507039 29.00118038 -0.18646991 31.8359375 -0.1953125 C32.72243988 -0.20563507 33.60894226 -0.21595764 34.52230835 -0.22659302 C36.68285952 -0.2269907 38.84293718 -0.12272534 41 0 C43 2 43 2 43.1953125 4.1640625 C43.17210937 4.97617187 43.14890625 5.78828125 43.125 6.625 C43.10695313 7.44226563 43.08890625 8.25953125 43.0703125 9.1015625 C43.04710937 9.72804688 43.02390625 10.35453125 43 11 C43.99 11 44.98 11 46 11 C45.97679687 10.37351562 45.95359375 9.74703125 45.9296875 9.1015625 C45.91164063 8.28429687 45.89359375 7.46703125 45.875 6.625 C45.85179687 5.81289063 45.82859375 5.00078125 45.8046875 4.1640625 C46 2 46 2 48 0 C50.00527191 -0.25168228 50.00527191 -0.25168228 52.51696777 -0.25396729 C53.46762619 -0.25960693 54.41828461 -0.26524658 55.39775085 -0.27105713 C56.44405167 -0.26700867 57.49035248 -0.26296021 58.56835938 -0.25878906 C60.21720879 -0.26404602 60.21720879 -0.26404602 61.89936829 -0.26940918 C65.547559 -0.27824076 69.19555717 -0.27237224 72.84375 -0.265625 C75.3695886 -0.26697124 77.89542694 -0.26891142 80.42126465 -0.27142334 C85.72081197 -0.27437654 91.02028973 -0.27026026 96.31982422 -0.26074219 C102.45126544 -0.24985733 108.58257367 -0.25338281 114.71401167 -0.264395 C120.60653768 -0.27455548 126.49902226 -0.27349159 132.39155579 -0.26763153 C134.90188109 -0.26629356 137.41220976 -0.26794786 139.92253113 -0.27259064 C143.42566023 -0.2776471 146.92853086 -0.26995788 150.43164062 -0.25878906 C151.47794144 -0.26283752 152.52424225 -0.26688599 153.60224915 -0.27105713 C154.55290756 -0.26541748 155.50356598 -0.25977783 156.48303223 -0.25396729 C157.31189186 -0.25321323 158.1407515 -0.25245918 158.99472809 -0.25168228 C161 0 161 0 163 2 C163.26709581 6.37231206 163.04647515 10.74525022 162.88842773 15.12084961 C162.81316317 17.29335756 162.76391869 19.46539391 162.71679688 21.63867188 C162.67346097 23.02609211 162.62858811 24.41346536 162.58203125 25.80078125 C162.52366089 27.69050659 162.52366089 27.69050659 162.46411133 29.6184082 C161.93432205 33.47854036 160.77885493 36.22114507 158 39 C156.33382885 39.04063832 154.66611905 39.042721 153 39 C153 41.97 153 44.94 153 48 C152.67 48 152.34 48 152 48 C152 44.7 152 41.4 152 38 C153.32 38 154.64 38 156 38 C156 37.34 156 36.68 156 36 C154.68 35.67 153.36 35.34 152 35 C153.65 35 155.3 35 157 35 C156.98839844 34.34257812 156.97679687 33.68515625 156.96484375 33.0078125 C156.87546076 23.58429153 157.4731145 14.48393891 158 5 C122.03 5 86.06 5 49 5 C49 8.63 49 12.26 49 16 C48.72520515 18.73568083 48.39930959 21.46720339 48 24.1875 C47.7215625 26.12689453 47.7215625 26.12689453 47.4375 28.10546875 C47.293125 29.06066406 47.14875 30.01585937 47 31 C46.01 30.67 45.02 30.34 44 30 C40.9254644 30.7763932 40.9254644 30.7763932 39 33 C39 23.76 39 14.52 39 5 C26.79 5 14.58 5 2 5 C2 4.67 2 4.34 2 4 C12.89 3.67 23.78 3.34 35 3 C35 2.34 35 1.68 35 1 C23.45 1 11.9 1 0 1 C0 0.67 0 0.34 0 0 Z " fill="#212121" transform="translate(371,325)"/>
<path d="M0 0 C3.0659505 1.19011018 4.24081399 2.05122951 6.11328125 4.8203125 C6.69053902 8.3654503 6.5783612 11.86266381 6.48828125 15.4453125 C6.47539063 16.51386475 6.4625 17.58241699 6.44921875 18.68334961 C6.17661948 33.74552434 5.12595157 48.79320063 4.11328125 63.8203125 C3.78328125 63.8203125 3.45328125 63.8203125 3.11328125 63.8203125 C2.78328125 57.2203125 2.45328125 50.6203125 2.11328125 43.8203125 C0.46328125 43.4903125 -1.18671875 43.1603125 -2.88671875 42.8203125 C-3.21671875 48.1003125 -3.54671875 53.3803125 -3.88671875 58.8203125 C-4.21671875 58.8203125 -4.54671875 58.8203125 -4.88671875 58.8203125 C-4.88148193 57.64936035 -4.87624512 56.4784082 -4.87084961 55.27197266 C-4.85278117 50.93718222 -4.84127996 46.60239513 -4.83178711 42.26757812 C-4.82675112 40.38964275 -4.81992204 38.5117113 -4.8112793 36.63378906 C-4.79918162 33.93814118 -4.79348318 31.24254503 -4.7890625 28.546875 C-4.78390121 27.70412018 -4.77873993 26.86136536 -4.77342224 25.99307251 C-4.65304836 21.77299889 -4.65304836 21.77299889 -5.88671875 17.8203125 C-8.91606366 17.16258822 -8.91606366 17.16258822 -11.88671875 16.8203125 C-12.46870176 25.06938026 -12.94977362 33.30574706 -13.1328125 41.57421875 C-13.14945953 42.29854095 -13.16610657 43.02286316 -13.18325806 43.76913452 C-13.2493242 46.72759353 -13.31211047 49.6860223 -13.36352539 52.64477539 C-13.40339839 54.85068364 -13.45478094 57.05609282 -13.5078125 59.26171875 C-13.53286865 60.54763916 -13.5579248 61.83355957 -13.58374023 63.15844727 C-13.90344806 67.02250665 -14.70189387 70.14614062 -15.88671875 73.8203125 C-16.54671875 72.8303125 -17.20671875 71.8403125 -17.88671875 70.8203125 C-18.38171875 71.3153125 -18.38171875 71.3153125 -18.88671875 71.8203125 C-21.07311328 71.89290196 -23.26172264 71.90405033 -25.44921875 71.8828125 C-26.64675781 71.87378906 -27.84429688 71.86476563 -29.078125 71.85546875 C-30.46837891 71.83806641 -30.46837891 71.83806641 -31.88671875 71.8203125 C-31.88671875 71.4903125 -31.88671875 71.1603125 -31.88671875 70.8203125 C-27.92671875 70.8203125 -23.96671875 70.8203125 -19.88671875 70.8203125 C-19.83773437 69.14710938 -19.78875 67.47390625 -19.73828125 65.75 C-19.32983713 52.65984073 -18.79117503 39.58105335 -18.01171875 26.5078125 C-17.91238037 24.61554932 -17.91238037 24.61554932 -17.81103516 22.68505859 C-17.3181779 14.93070105 -16.85641272 7.85559011 -10.76171875 2.3203125 C-7.14762943 -0.54947392 -4.46530213 -0.61863866 0 0 Z " fill="#1D1E1D" transform="translate(853.88671875,385.1796875)"/>
<path d="M0 0 C1.51289503 0.00031716 3.0258126 0.01164445 4.53857422 0.03173828 C5.33480194 0.03456818 6.13102966 0.03739807 6.9513855 0.04031372 C9.49882935 0.05152438 12.04592383 0.07663016 14.59326172 0.10205078 C16.31851706 0.11207945 18.04377791 0.1212055 19.76904297 0.12939453 C24.00225086 0.15146656 28.23519702 0.18600212 32.46826172 0.22705078 C32.46826172 0.88705078 32.46826172 1.54705078 32.46826172 2.22705078 C25.68901478 3.4116769 18.89879226 3.56099112 12.03076172 3.78955078 C10.82226562 3.83273437 9.61376953 3.87591797 8.36865234 3.92041016 C5.40195566 4.02594482 2.4351827 4.12805792 -0.53173828 4.22705078 C-1.01646278 9.35154181 -1.49532092 14.47655078 -1.96923828 19.60205078 C-2.03898865 20.35603149 -2.10873901 21.11001221 -2.18060303 21.88684082 C-3.10250503 31.90639653 -3.90674763 41.90584921 -4.32080078 51.96142578 C-4.50638487 54.83454234 -4.96406418 57.4146806 -5.53173828 60.22705078 C-5.75054847 62.83386348 -5.94186681 65.42925267 -6.09423828 68.03955078 C-6.13742187 68.73242188 -6.18060547 69.42529297 -6.22509766 70.13916016 C-6.33035281 71.83493765 -6.43146692 73.5309713 -6.53173828 75.22705078 C-6.86173828 75.22705078 -7.19173828 75.22705078 -7.53173828 75.22705078 C-7.86173828 72.25705078 -8.19173828 69.28705078 -8.53173828 66.22705078 C-9.19173828 66.22705078 -9.85173828 66.22705078 -10.53173828 66.22705078 C-11.19173828 63.25705078 -11.85173828 60.28705078 -12.53173828 57.22705078 C-13.19173828 57.22705078 -13.85173828 57.22705078 -14.53173828 57.22705078 C-14.66673697 47.99114031 -14.32689919 38.84071086 -13.73217773 29.62939453 C-13.59175764 27.43834401 -13.46087291 25.2468487 -13.33056641 23.05517578 C-13.24323724 21.65930721 -13.15536795 20.2634723 -13.06689453 18.86767578 C-12.98834229 17.6150293 -12.90979004 16.36238281 -12.82885742 15.07177734 C-12.53173828 12.22705078 -12.53173828 12.22705078 -11.53173828 11.22705078 C-9.53215464 11.18624295 -7.53128574 11.18450722 -5.53173828 11.22705078 C-5.55494141 10.60056641 -5.57814453 9.97408203 -5.60205078 9.32861328 C-5.62009766 8.51134766 -5.63814453 7.69408203 -5.65673828 6.85205078 C-5.67994141 6.03994141 -5.70314453 5.22783203 -5.72705078 4.39111328 C-5.36777709 0.41036081 -3.76058557 0.24176307 0 0 Z " fill="#171717" transform="translate(373.53173828125,325.77294921875)"/>
<path d="M0 0 C1.06476562 -0.01611328 2.12953125 -0.03222656 3.2265625 -0.04882812 C18.87385478 -0.05832284 32.38380793 4.86769918 43.875 15.625 C49.86657651 22.06287644 55.875 31.31919676 55.875 40.3125 C55.215 40.3125 54.555 40.3125 53.875 40.3125 C53.875 45.9225 53.875 51.5325 53.875 57.3125 C53.545 57.3125 53.215 57.3125 52.875 57.3125 C52.81892578 55.75402344 52.81892578 55.75402344 52.76171875 54.1640625 C52.09550753 38.84120455 49.10482787 27.96549866 37.625 17 C32.84850628 12.94448647 27.63382909 10.65230772 21.875 8.3125 C21.18535156 7.9515625 20.49570312 7.590625 19.78515625 7.21875 C9.37790971 2.28116064 -7.47541204 4.70625699 -17.9453125 8.125 C-31.48458592 13.18143627 -40.37810581 21.11994494 -48.125 33.3125 C-48.785 34.3025 -49.445 35.2925 -50.125 36.3125 C-50.455 35.6525 -50.785 34.9925 -51.125 34.3125 C-51.46273437 34.89 -51.80046875 35.4675 -52.1484375 36.0625 C-52.81746094 37.17625 -52.81746094 37.17625 -53.5 38.3125 C-53.94085937 39.055 -54.38171875 39.7975 -54.8359375 40.5625 C-55.26132812 41.14 -55.68671875 41.7175 -56.125 42.3125 C-56.785 42.3125 -57.445 42.3125 -58.125 42.3125 C-53.9633119 28.56083498 -43.20992302 15.95196448 -31.125 8.3125 C-26.87484405 6.09791814 -22.56624845 4.1124037 -18.125 2.3125 C-17.25488281 1.93351562 -16.38476562 1.55453125 -15.48828125 1.1640625 C-10.3433935 -0.13859201 -5.28583087 -0.01565708 0 0 Z " fill="#252525" transform="translate(574.125,348.6875)"/>
<path d="M0 0 C0.33 0 0.66 0 1 0 C1.042721 1.66611905 1.04063832 3.33382885 1 5 C0 6 0 6 -3.0625 6.0625 C-4.031875 6.041875 -5.00125 6.02125 -6 6 C-6 9.3 -6 12.6 -6 16 C-20.19 16 -34.38 16 -49 16 C-49 6 -49 6 -47 3 C-43.91831765 2.59670291 -41.03225057 2.39097273 -37.9375 2.3125 C-37.02460205 2.27906494 -36.1117041 2.24562988 -35.17114258 2.21118164 C-23.78570728 1.84286027 -12.38953932 1.90786309 -1 2 C-0.67 1.34 -0.34 0.68 0 0 Z " fill="#0B0B0B" transform="translate(836,454)"/>
<path d="M0 0 C0.33 3.3 0.66 6.6 1 10 C1.99 9.67 2.98 9.34 4 9 C4.25376018 22.18143176 3.89009135 35.28087566 3.125 48.4375 C3.08570374 49.15791473 3.04640747 49.87832947 3.00592041 50.62057495 C2.89045921 52.70472385 2.7635129 54.78785074 2.6328125 56.87109375 C2.55949707 58.07693115 2.48618164 59.28276855 2.41064453 60.52514648 C1.97193649 64.23747201 1.11872596 67.44220119 0 71 C-2.31 71 -4.62 71 -7 71 C-7.25334487 56.86140743 -6.96562968 42.79932596 -6.125 28.6875 C-6.0660556 27.64687912 -6.0660556 27.64687912 -6.00592041 26.5852356 C-4.94183106 8.1064624 -4.94183106 8.1064624 -3 1 C-1 0 -1 0 0 0 Z " fill="#080808" transform="translate(362,382)"/>
<path d="M0 0 C1.0327002 0.01458252 2.06540039 0.02916504 3.12939453 0.04418945 C4.85416016 0.05675781 4.85416016 0.05675781 6.61376953 0.06958008 C8.41974609 0.11308594 8.41974609 0.11308594 10.26220703 0.1574707 C12.01017578 0.17197266 12.01017578 0.17197266 13.79345703 0.18676758 C21.68869901 0.28742754 29.52347553 0.77389878 37.38720703 1.4699707 C37.05720703 2.1299707 36.72720703 2.7899707 36.38720703 3.4699707 C36.05720703 7.0999707 35.72720703 10.7299707 35.38720703 14.4699707 C20.86720703 14.4699707 6.34720703 14.4699707 -8.61279297 14.4699707 C-8.28279297 13.4799707 -7.95279297 12.4899707 -7.61279297 11.4699707 C-6.95279297 11.1399707 -6.29279297 10.8099707 -5.61279297 10.4699707 C-5.67466797 9.5624707 -5.73654297 8.6549707 -5.80029297 7.7199707 C-5.54715321 3.33221483 -4.56439759 0.82101153 0 0 Z " fill="#0A0B0A" transform="translate(444.61279296875,455.530029296875)"/>
<path d="M0 0 C37.29 0 74.58 0 113 0 C112.67 1.32 112.34 2.64 112 4 C97.98763563 4.02336069 83.97527428 4.0409283 69.96289444 4.05181217 C63.45670141 4.05703533 56.95052145 4.06412275 50.44433594 4.07543945 C44.16794455 4.08628839 37.89156575 4.09228112 31.61516571 4.09487724 C29.21813509 4.09672786 26.82110517 4.10034154 24.4240799 4.10573006 C21.0720927 4.11296705 17.72015779 4.11398981 14.36816406 4.11352539 C12.87491608 4.1189183 12.87491608 4.1189183 11.35150146 4.12442017 C9.98016052 4.12235817 9.98016052 4.12235817 8.58111572 4.12025452 C7.78837376 4.12117631 6.99563179 4.1220981 6.17886734 4.12304783 C3.99986822 3.99999256 2.093205 3.60155339 0 3 C0 2.01 0 1.02 0 0 Z " fill="#121212" transform="translate(419,325)"/>
<path d="M0 0 C4.34170068 -0.02298547 8.68318925 -0.04289006 13.02490234 -0.05493164 C14.50114661 -0.05995288 15.97738592 -0.06677116 17.45361328 -0.07543945 C19.57846298 -0.08760189 21.70324678 -0.09325046 23.828125 -0.09765625 C25.1059082 -0.10289307 26.38369141 -0.10812988 27.70019531 -0.11352539 C30.3620936 -0.02194632 32.48309582 0.19891486 35 1 C35 1.66 35 2.32 35 3 C33.68 3 32.36 3 31 3 C31 6.3 31 9.6 31 13 C21.43 13 11.86 13 2 13 C2 15.97 2 18.94 2 22 C1.67 22 1.34 22 1 22 C0.67 14.74 0.34 7.48 0 0 Z " fill="#0A0909" transform="translate(492,360)"/>
<path d="M0 0 C0.77923828 0.01353516 1.55847656 0.02707031 2.36132812 0.04101562 C4.26202404 0.07599776 6.16235834 0.12979041 8.0625 0.1875 C9.0525 2.1675 9.0525 2.1675 10.0625 4.1875 C4.4525 4.1875 -1.1575 4.1875 -6.9375 4.1875 C-6.9375 4.8475 -6.9375 5.5075 -6.9375 6.1875 C-8.13375 6.435 -9.33 6.6825 -10.5625 6.9375 C-14.64808323 7.95528664 -17.55017335 9.64700501 -20.9375 12.1875 C-21.72125 12.765 -22.505 13.3425 -23.3125 13.9375 C-23.84875 14.35 -24.385 14.7625 -24.9375 15.1875 C-24.6075 12.5475 -24.2775 9.9075 -23.9375 7.1875 C-35.4875 7.1875 -47.0375 7.1875 -58.9375 7.1875 C-59.2675 15.4375 -59.5975 23.6875 -59.9375 32.1875 C-60.2675 32.1875 -60.5975 32.1875 -60.9375 32.1875 C-60.96470824 29.49993045 -60.9844388 26.81264202 -61 24.125 C-61.00837891 23.37283203 -61.01675781 22.62066406 -61.02539062 21.84570312 C-61.04558341 17.18116882 -60.71345959 12.78826827 -59.9375 8.1875 C-60.5975 8.1875 -61.2575 8.1875 -61.9375 8.1875 C-61.9375 10.1675 -61.9375 12.1475 -61.9375 14.1875 C-64.2475 14.1875 -66.5575 14.1875 -68.9375 14.1875 C-68.9375 13.8575 -68.9375 13.5275 -68.9375 13.1875 C-66.9575 13.1875 -64.9775 13.1875 -62.9375 13.1875 C-62.94910156 12.56101562 -62.96070313 11.93453125 -62.97265625 11.2890625 C-62.98167969 10.47179687 -62.99070312 9.65453125 -63 8.8125 C-63.01160156 8.00039063 -63.02320313 7.18828125 -63.03515625 6.3515625 C-62.9375 4.1875 -62.9375 4.1875 -61.9375 2.1875 C-56.19002597 2.16274446 -50.44258311 2.14461362 -44.69506836 2.13256836 C-42.74063577 2.12754578 -40.78620694 2.12072651 -38.83178711 2.11206055 C-36.01935907 2.09990411 -33.20698081 2.09425087 -30.39453125 2.08984375 C-29.52351273 2.08468246 -28.6524942 2.07952118 -27.75508118 2.07420349 C-24.39691699 2.07389435 -21.34798727 2.10288993 -18.04980469 2.78271484 C-15.15909247 3.33666779 -13.45707772 2.13011434 -10.88232422 0.90380859 C-7.33372722 -0.40319412 -3.73284956 -0.12474819 0 0 Z " fill="#1C1C1C" transform="translate(801.9375,348.8125)"/>
<path d="M0 0 C3.39505382 1.78437712 5.91811748 3.76595236 8 7 C8.495 10.465 8.495 10.465 9 14 C-1.89 14 -12.78 14 -24 14 C-22.75322588 7.76612942 -20.40390322 4.75895358 -15.4375 1.125 C-10.21045152 -0.58567041 -5.42865839 -0.98638368 0 0 Z " fill="#131313" transform="translate(582,380)"/>
<path d="M0 0 C4.16734939 4.16734939 3.15163628 10.98440413 3.18969727 16.55541992 C3.18897217 17.69213135 3.18824707 18.82884277 3.1875 20 C3.18741943 21.19665283 3.18733887 22.39330566 3.18725586 23.6262207 C3.1219801 34.49566511 2.64181448 45.33449329 2.0625 56.1875 C2.01902435 57.00887451 1.97554871 57.83024902 1.93075562 58.67651367 C0.93174451 77.24664054 0.93174451 77.24664054 0 83 C-0.99 83.495 -0.99 83.495 -2 84 C-2 81.69 -2 79.38 -2 77 C-2.66 78.32 -3.32 79.64 -4 81 C-4.29024046 66.09117483 -3.51161321 51.22313851 -2.77319336 36.33813477 C-2.59466386 32.73730822 -2.42407384 29.13615307 -2.25558567 25.5348444 C-2.12411536 22.7440962 -1.98841681 19.95356607 -1.85142326 17.16308403 C-1.75535845 15.18998342 -1.66299773 13.21670359 -1.57069397 11.24342346 C-1.51070724 10.05715866 -1.45072052 8.87089386 -1.38891602 7.64868164 C-1.31230492 6.08012169 -1.31230492 6.08012169 -1.23414612 4.47987366 C-1 2 -1 2 0 0 Z " fill="#0D0D0D" transform="translate(899,375)"/>
<path d="M0 0 C13.86 0 27.72 0 42 0 C40.68 0.33 39.36 0.66 38 1 C37.67 1.99 37.34 2.98 37 4 C34.78515625 5.5703125 34.78515625 5.5703125 32.0625 7.125 C31.16660156 7.64320313 30.27070312 8.16140625 29.34765625 8.6953125 C23.26405032 12.07621829 16.80147577 11.64442407 10 11 C5.8901927 9.40603711 3.08389513 7.08389513 0 4 C0 2.68 0 1.36 0 0 Z " fill="#0C0C0C" transform="translate(560,417)"/>
<path d="M0 0 C0.74958984 0.00451172 1.49917969 0.00902344 2.27148438 0.01367188 C4.11852383 0.02543646 5.96552213 0.04337135 7.8125 0.0625 C7.96275998 6.15876185 7.27707199 9.03779801 3.4375 13.75 C-0.74104351 17.12497745 -4.93640861 17.53987194 -10.1875 17.0625 C-12.625 15.6875 -12.625 15.6875 -14.1875 14.0625 C-14.1875 13.4025 -14.1875 12.7425 -14.1875 12.0625 C-14.8475 12.0625 -15.5075 12.0625 -16.1875 12.0625 C-16.5 9.375 -16.5 9.375 -16.1875 6.0625 C-11.30635742 0.12597524 -7.29286297 -0.08280106 0 0 Z " fill="#161515" transform="translate(682.1875,414.9375)"/>
<path d="M0 0 C0.99 0.495 0.99 0.495 2 1 C1.93093078 5.32388583 1.84287346 9.64685148 1.73754883 13.9699707 C1.70438741 15.43926422 1.67632822 16.90868244 1.65356445 18.37817383 C1.61985481 20.49614368 1.56753567 22.61297995 1.51171875 24.73046875 C1.48553467 26.00301514 1.45935059 27.27556152 1.43237305 28.58666992 C0.93881292 32.48303588 -0.20063334 35.20063334 -3 38 C-4.66617115 38.04063832 -6.33388095 38.042721 -8 38 C-8 40.97 -8 43.94 -8 47 C-8.33 47 -8.66 47 -9 47 C-9 43.7 -9 40.4 -9 37 C-7.68 37 -6.36 37 -5 37 C-5 36.34 -5 35.68 -5 35 C-6.98 34.505 -6.98 34.505 -9 34 C-7.35 34 -5.7 34 -4 34 C-4.01160156 33.34257812 -4.02320313 32.68515625 -4.03515625 32.0078125 C-4.12453924 22.58429153 -3.5268855 13.48393891 -3 4 C-38.64 4 -74.28 4 -111 4 C-111 3.67 -111 3.34 -111 3 C-74.7 2.67 -38.4 2.34 -1 2 C-0.67 1.34 -0.34 0.68 0 0 Z " fill="#4B4A4A" transform="translate(532,326)"/>
<path d="M0 0 C10.23 0 20.46 0 31 0 C31 4.62 31 9.24 31 14 C30.67 14 30.34 14 30 14 C30 9.71 30 5.42 30 1 C20.43 1 10.86 1 1 1 C1 4.3 1 7.6 1 11 C0.84131742 13.47007409 0.64772399 15.93823164 0.4140625 18.40234375 C0.28753419 19.78506162 0.16115735 21.16779336 0.03491211 22.55053711 C-0.03196808 23.26547333 -0.09884827 23.98040955 -0.16775513 24.7170105 C-1.13821431 35.11482834 -2.02117364 45.50828993 -2.57421875 55.9375 C-2.6168988 56.73926163 -2.65957886 57.54102325 -2.70355225 58.36708069 C-2.90563544 62.23691476 -3.09295824 66.1069971 -3.26513672 69.97827148 C-3.33419143 71.38005141 -3.40335857 72.78182581 -3.47265625 74.18359375 C-3.52687744 75.40618896 -3.58109863 76.62878418 -3.63696289 77.88842773 C-3.97474983 80.7835821 -4.49050517 82.54311709 -6 85 C-6.02734857 82.97924434 -6.0465517 80.95837779 -6.0625 78.9375 C-6.07410156 77.81214844 -6.08570313 76.68679688 -6.09765625 75.52734375 C-6 72 -6 72 -5.5 68.71875 C-4.86235854 63.97629164 -4.89313987 59.3396542 -4.9375 54.5625 C-4.958125 51.406875 -4.97875 48.25125 -5 45 C-5.66 53.58 -6.32 62.16 -7 71 C-7.33 71 -7.66 71 -8 71 C-8.25348482 56.40349921 -7.45383985 41.93652826 -6.5 27.375 C-6.35495016 25.09638712 -6.21041562 22.81774138 -6.06640625 20.5390625 C-5.71686185 15.02564966 -5.36101734 9.51267288 -5 4 C-4.67 4 -4.34 4 -4 4 C-4 12.91 -4 21.82 -4 31 C-2.75182002 28.50364003 -2.70885271 26.51711403 -2.5 23.73046875 C-2.4175 22.67666016 -2.335 21.62285156 -2.25 20.53710938 C-2.1675 19.43173828 -2.085 18.32636719 -2 17.1875 C-1.8360676 15.01411495 -1.66949341 12.84092719 -1.5 10.66796875 C-1.4278125 9.70141357 -1.355625 8.7348584 -1.28125 7.73901367 C-1 5 -1 5 0 0 Z " fill="#5F5E5E" transform="translate(411,373)"/>
<path d="M0 0 C1.32 0 2.64 0 4 0 C4 0.66 4 1.32 4 2 C4.721875 2.09152344 5.44375 2.18304688 6.1875 2.27734375 C12.57032941 3.91737631 18.2825493 9.43561204 21.9375 14.8125 C28.13596144 26.28624778 27.34392474 38.33475115 27 51 C26.67 51 26.34 51 26 51 C25.93941406 49.77023437 25.87882813 48.54046875 25.81640625 47.2734375 C25.73194995 45.64061573 25.64730453 44.00780373 25.5625 42.375 C25.52318359 41.56675781 25.48386719 40.75851562 25.44335938 39.92578125 C25.21203918 35.54849135 24.83079083 31.31452719 24 27 C23.01 27.33 22.02 27.66 21 28 C20.65388672 26.91332031 20.65388672 26.91332031 20.30078125 25.8046875 C17.51851016 17.5568483 14.84642056 12.27748759 6.875 8.1875 C2.62926756 6.1936834 -0.96558232 4.89325429 -5.66796875 4.68359375 C-6.56064453 4.64169922 -7.45332031 4.59980469 -8.37304688 4.55664062 C-9.30181641 4.51732422 -10.23058594 4.47800781 -11.1875 4.4375 C-12.12787109 4.39431641 -13.06824219 4.35113281 -14.03710938 4.30664062 C-16.35792854 4.20061335 -18.67885325 4.09854971 -21 4 C-21 3.67 -21 3.34 -21 3 C-13.08 3 -5.16 3 3 3 C3 2.34 3 1.68 3 1 C2.01 0.67 1.02 0.34 0 0 Z " fill="#252526" transform="translate(876,350)"/>
<path d="M0 0 C13.15780795 0.55990672 22.96188676 5.37016219 31.875 15 C34.52253279 18.16736799 36.24727299 20.86000144 37 25 C36.64395677 28.1153783 35.80284553 29.29573171 34 32 C33.61908203 30.89591797 33.61908203 30.89591797 33.23046875 29.76953125 C32.88628906 28.79371094 32.54210937 27.81789063 32.1875 26.8125 C31.85105469 25.84957031 31.51460937 24.88664062 31.16796875 23.89453125 C27.40434146 14.56728101 20.77614076 11.056136 11.8125 7.1875 C7.87315018 5.55796975 4.22511365 4.58212677 0 4 C1.32 3.34 2.64 2.68 4 2 C2.68 1.34 1.36 0.68 0 0 Z " fill="#282727" transform="translate(692,350)"/>
<path d="M0 0 C1.98 0 3.96 0 6 0 C6.0292067 3.54164915 6.04686814 7.08326697 6.0625 10.625 C6.07087891 11.62402344 6.07925781 12.62304688 6.08789062 13.65234375 C6.1041087 18.55020275 6.04318537 23.18656199 5 28 C4.34 28 3.68 28 3 28 C3 26.68 3 25.36 3 24 C2.01 24 1.02 24 0 24 C-0.33 25.65 -0.66 27.3 -1 29 C-1.33 29 -1.66 29 -2 29 C-2.30384747 19.14183749 -1.39879438 9.72911448 0 0 Z " fill="#090A09" transform="translate(851,428)"/>
<path d="M0 0 C0.33 0 0.66 0 1 0 C1 8.58 1 17.16 1 26 C1.66 26 2.32 26 3 26 C3.13265478 33.38444918 2.95335591 40.74849494 2.625 48.125 C2.59414307 48.96651611 2.56328613 49.80803223 2.53149414 50.67504883 C2.23281752 56.76718248 2.23281752 56.76718248 0 59 C-0.495 57.515 -0.495 57.515 -1 56 C-1.33 56.66 -1.66 57.32 -2 58 C-4.97 58 -7.94 58 -11 58 C-11 57.67 -11 57.34 -11 57 C-8.36 57 -5.72 57 -3 57 C-3.01160156 56.33355469 -3.02320313 55.66710937 -3.03515625 54.98046875 C-3.04417969 54.05878906 -3.05320312 53.13710938 -3.0625 52.1875 C-3.07410156 51.29417969 -3.08570313 50.40085937 -3.09765625 49.48046875 C-3.01825426 46.65058175 -2.81098738 43.92186735 -2.52734375 41.109375 C-1.75775094 33.07329916 -1.64649712 25.00795572 -1.44775391 16.94213867 C-1.3959377 14.88969415 -1.33881483 12.83744634 -1.28125 10.78515625 C-1.25095703 9.57738525 -1.22066406 8.36961426 -1.18945312 7.12524414 C-1.034772 4.57360363 -0.74396914 2.43032428 0 0 Z " fill="#414141" transform="translate(776,399)"/>
<path d="M0 0 C3.1050516 4.6575774 5.06108604 9.79896433 7.25 14.9375 C7.7346875 16.03513672 8.219375 17.13277344 8.71875 18.26367188 C9.16734375 19.32005859 9.6159375 20.37644531 10.078125 21.46484375 C10.49481445 22.430271 10.91150391 23.39569824 11.34082031 24.39038086 C12 27 12 27 11.31542969 29.17407227 C9.255661 32.03320552 6.77035697 33.83189455 4 36 C3.95101562 34.92621094 3.90203125 33.85242188 3.8515625 32.74609375 C3.77646602 31.30987358 3.70092124 29.87367681 3.625 28.4375 C3.5940625 27.73302734 3.563125 27.02855469 3.53125 26.30273438 C3.27179124 21.61085516 2.44439162 17.50310329 1 13 C0.71898437 12.05253906 0.43796875 11.10507812 0.1484375 10.12890625 C-0.10679687 9.28199219 -0.36203125 8.43507813 -0.625 7.5625 C-0.88539063 6.69753906 -1.14578125 5.83257812 -1.4140625 4.94140625 C-1.60742188 4.30074219 -1.80078125 3.66007812 -2 3 C-1.34 3 -0.68 3 0 3 C0 2.01 0 1.02 0 0 Z " fill="#EDEBEA" transform="translate(627,371)"/>
<path d="M0 0 C0.82064941 -0.00547852 1.64129883 -0.01095703 2.48681641 -0.01660156 C6.80233146 0.034742 10.19559879 0.31598238 14.125 2.3125 C14.125 2.9725 14.125 3.6325 14.125 4.3125 C13.09729492 4.33437378 13.09729492 4.33437378 12.04882812 4.35668945 C8.90702026 4.43173432 5.76621008 4.5282069 2.625 4.625 C1.00851562 4.65883789 1.00851562 4.65883789 -0.640625 4.69335938 C-7.08819829 4.90958897 -11.95325605 5.77946044 -17.875 8.3125 C-18.865 8.3125 -19.855 8.3125 -20.875 8.3125 C-20.875 7.6525 -20.875 6.9925 -20.875 6.3125 C-22.525 6.6425 -24.175 6.9725 -25.875 7.3125 C-18.84593185 0.28343185 -9.38009034 0.04649806 0 0 Z " fill="#212022" transform="translate(864.875,348.6875)"/>
<path d="M0 0 C0.33 0 0.66 0 1 0 C2 6.875 2 6.875 2 8 C2.66 8 3.32 8 4 8 C3.67 11.96 3.34 15.92 3 20 C2.01 19.01 2.01 19.01 1 18 C0.01 18 -0.98 18 -2 18 C-2.36122881 16.68942607 -2.71380311 15.37646376 -3.0625 14.0625 C-3.35833984 12.96615234 -3.35833984 12.96615234 -3.66015625 11.84765625 C-3.77230469 11.23792969 -3.88445313 10.62820313 -4 10 C-3.67 9.67 -3.34 9.34 -3 9 C-23.79 8.67 -44.58 8.34 -66 8 C-66.33 8.66 -66.66 9.32 -67 10 C-67 9.01 -67 8.02 -67 7 C-45.22 6.67 -23.44 6.34 -1 6 C-0.67 4.02 -0.34 2.04 0 0 Z " fill="#262626" transform="translate(626,409)"/>
<path d="M0 0 C-0.33 0.66 -0.66 1.32 -1 2 C1.475 2.495 1.475 2.495 4 3 C4 3.33 4 3.66 4 4 C3.44054687 4.08636719 2.88109375 4.17273438 2.3046875 4.26171875 C-4.45667753 5.44658818 -10.6901631 7.56825699 -17.09375 9.9765625 C-20 11 -20 11 -22 11 C-22.33 11.66 -22.66 12.32 -23 13 C-23.66666667 14.33333333 -24.33333333 15.66666667 -25 17 C-25.66 16.67 -26.32 16.34 -27 16 C-27.375 13.25 -27.375 13.25 -27 10 C-22.82979037 6.73524873 -18.37863613 4.68174279 -13.5 2.75 C-12.86191406 2.481875 -12.22382812 2.21375 -11.56640625 1.9375 C-7.56223531 0.33255623 -4.30242336 -0.29213986 0 0 Z " fill="#181818" transform="translate(661,351)"/>
<path d="M0 0 C0.33 0 0.66 0 1 0 C1.33 1.98 1.66 3.96 2 6 C2.33 5.01 2.66 4.02 3 3 C3.99 3 4.98 3 6 3 C6 4.32 6 5.64 6 7 C6.66 7 7.32 7 8 7 C8 5.02 8 3.04 8 1 C8.33 1 8.66 1 9 1 C9 2.98 9 4.96 9 7 C21.54 7 34.08 7 47 7 C47 7.33 47 7.66 47 8 C34.46 8 21.92 8 9 8 C9.33 9.32 9.66 10.64 10 12 C8.03533587 13.06775224 6.03144641 14.06553465 4 15 C3.34 14.67 2.68 14.34 2 14 C2 13.34 2 12.68 2 12 C1.34 12 0.68 12 0 12 C0 14.31 0 16.62 0 19 C-0.33 19 -0.66 19 -1 19 C-0.67 12.73 -0.34 6.46 0 0 Z " fill="#2E2D2D" transform="translate(848,449)"/>
<path d="M0 0 C0.33 0 0.66 0 1 0 C0.28272968 6.40258139 -0.82867445 12.67827896 -2.0625 19 C-2.24876953 19.96550781 -2.43503906 20.93101562 -2.62695312 21.92578125 C-3.08231343 24.28431409 -3.54004287 26.64236011 -4 29 C-4.66 28.01 -5.32 27.02 -6 26 C-7.32 26.33 -8.64 26.66 -10 27 C-10.75 25.25 -10.75 25.25 -11 23 C-10.360625 22.46375 -9.72125 21.9275 -9.0625 21.375 C-5.84651336 17.67174266 -6.67644308 13.70955075 -7 9 C-6.34 9 -5.68 9 -5 9 C-4.5978125 7.88625 -4.5978125 7.88625 -4.1875 6.75 C-3.05336685 4.12358639 -1.84835933 2.16981312 0 0 Z " fill="#030303" transform="translate(523,382)"/>
<path d="M0 0 C0.33 0 0.66 0 1 0 C0.85585301 3.29174263 0.7093301 6.58337605 0.5625 9.875 C0.52318359 10.77347656 0.48386719 11.67195313 0.44335938 12.59765625 C0.03365268 21.73726719 -0.49240284 30.86325109 -1 40 C13.85 40 28.7 40 44 40 C44 40.33 44 40.66 44 41 C28.82 41 13.64 41 -2 41 C-2.58766665 32.77266689 -3.14958454 24.82434456 -3.0625 16.625 C-3.05798828 15.78195312 -3.05347656 14.93890625 -3.04882812 14.0703125 C-3.03733113 12.0468422 -3.01941438 10.02340982 -3 8 C-2.01 7.67 -1.02 7.34 0 7 C0 4.69 0 2.38 0 0 Z " fill="#CCCDCD" transform="translate(437,430)"/>
<path d="M0 0 C1.51815699 0.00015911 3.0363194 0.00585313 4.55444336 0.01586914 C5.35208603 0.01728409 6.1497287 0.01869904 6.97154236 0.02015686 C9.52916146 0.02577223 12.08669429 0.03832727 14.64428711 0.05102539 C16.37410356 0.05603841 18.10392137 0.06060166 19.83374023 0.06469727 C24.08312264 0.07574664 28.33244023 0.09302153 32.58178711 0.11352539 C32.58178711 0.77352539 32.58178711 1.43352539 32.58178711 2.11352539 C25.80254017 3.29815151 19.01231765 3.44746573 12.14428711 3.67602539 C10.93579102 3.71920898 9.72729492 3.76239258 8.48217773 3.80688477 C5.51548105 3.91241943 2.54870809 4.01453253 -0.41821289 4.11352539 C-1.40821289 6.42352539 -2.39821289 8.73352539 -3.41821289 11.11352539 C-3.74821289 11.11352539 -4.07821289 11.11352539 -4.41821289 11.11352539 C-4.4450944 9.46777973 -4.46455412 7.82191126 -4.48071289 6.17602539 C-4.49231445 5.25950195 -4.50391602 4.34297852 -4.51586914 3.39868164 C-4.35767393 -0.3030862 -3.83007521 0.12720413 0 0 Z " fill="#020303" transform="translate(373.418212890625,325.886474609375)"/>
<path d="M0 0 C0.66 0 1.32 0 2 0 C1.85960448 3.97937771 1.71168681 7.95844294 1.5625 11.9375 C1.52318359 13.05447266 1.48386719 14.17144531 1.44335938 15.32226562 C0.72065549 34.27934451 0.72065549 34.27934451 -3 38 C-3.11399031 30.71728586 -3.00362455 23.46014616 -2.625 16.1875 C-2.59414307 15.495354 -2.56328613 14.80320801 -2.53149414 14.09008789 C-2.25004218 9.18369557 -1.30546352 4.73893872 0 0 Z " fill="#060605" transform="translate(409,368)"/>
<path d="M0 0 C4.33850742 4.33850742 3.18316321 12.00554414 3.1875 17.8125 C3.19974609 18.66392578 3.21199219 19.51535156 3.22460938 20.39257812 C3.23792682 26.22118017 2.44491842 31.35168253 1 37 C0.34 37 -0.32 37 -1 37 C-1.0246826 32.05208706 -1.04285166 27.1042098 -1.05493164 22.15625 C-1.05996653 20.47232438 -1.06679481 18.78840314 -1.07543945 17.10449219 C-1.08754196 14.68683797 -1.09323668 12.26924144 -1.09765625 9.8515625 C-1.10281754 9.0963028 -1.10797882 8.34104309 -1.11329651 7.56289673 C-1.11387171 2.22774341 -1.11387171 2.22774341 0 0 Z " fill="#030303" transform="translate(899,375)"/>
<path d="M0 0 C-0.57584432 2.38564077 -1.22227595 4.66682784 -2 7 C-1.01 7.33 -0.02 7.66 1 8 C-0.98 9.65 -2.96 11.3 -5 13 C-7.31 12.01 -9.62 11.02 -12 10 C-12 9.01 -12 8.02 -12 7 C-12.99 6.67 -13.98 6.34 -15 6 C-13.96939453 5.60167969 -13.96939453 5.60167969 -12.91796875 5.1953125 C-12.01691406 4.84210938 -11.11585938 4.48890625 -10.1875 4.125 C-9.29417969 3.77695312 -8.40085937 3.42890625 -7.48046875 3.0703125 C-0.3649635 0 -0.3649635 0 0 0 Z " fill="#1E1F1E" transform="translate(613,447)"/>
<path d="M0 0 C1.32 0 2.64 0 4 0 C4 0.99 4 1.98 4 3 C14.89 3 25.78 3 37 3 C37 3.33 37 3.66 37 4 C25.78 4 14.56 4 3 4 C2.67 12.25 2.34 20.5 2 29 C1.67 29 1.34 29 1 29 C0.97279176 26.31243045 0.9530612 23.62514202 0.9375 20.9375 C0.92912109 20.18533203 0.92074219 19.43316406 0.91210938 18.65820312 C0.89191659 13.99366882 1.22404041 9.60076827 2 5 C1.34 5 0.68 5 0 5 C0 6.98 0 8.96 0 11 C-2.31 11 -4.62 11 -7 11 C-7 10.67 -7 10.34 -7 10 C-5.02 10 -3.04 10 -1 10 C-1.01160156 9.36191406 -1.02320313 8.72382813 -1.03515625 8.06640625 C-1.04417969 7.24011719 -1.05320312 6.41382813 -1.0625 5.5625 C-1.07410156 4.73878906 -1.08570313 3.91507812 -1.09765625 3.06640625 C-1 1 -1 1 0 0 Z " fill="#626364" transform="translate(740,352)"/>
<path d="M0 0 C0.33 0 0.66 0 1 0 C1.14973506 9.71614177 0.69613269 19.31629705 0 29 C0.66 29 1.32 29 2 29 C2.33 27.68 2.66 26.36 3 25 C3.25 31.625 3.25 31.625 1 35 C-2.125 35.1875 -2.125 35.1875 -5 35 C-5 38.3 -5 41.6 -5 45 C-5.33 45 -5.66 45 -6 45 C-6.02687279 43.18757948 -6.04633715 41.37504767 -6.0625 39.5625 C-6.07410156 38.55316406 -6.08570313 37.54382813 -6.09765625 36.50390625 C-6 34 -6 34 -5 33 C-8.96 32.67 -12.92 32.34 -17 32 C-17 31.67 -17 31.34 -17 31 C-11.72 31 -6.44 31 -1 31 C-1.01740234 29.15148437 -1.01740234 29.15148437 -1.03515625 27.265625 C-1.09431789 18.12237886 -1.017297 9.10117496 0 0 Z " fill="#2F2F2F" transform="translate(486,425)"/>
<path d="M0 0 C0.33 0 0.66 0 1 0 C1.0294191 3.47914843 1.04693792 6.95826417 1.0625 10.4375 C1.07087891 11.41138672 1.07925781 12.38527344 1.08789062 13.38867188 C1.10782078 19.34778969 0.77609518 25.09067683 0 31 C0.66 31 1.32 31 2 31 C2.495 26.545 2.495 26.545 3 22 C3.33 22 3.66 22 4 22 C3.67 31.57 3.34 41.14 3 51 C2.67 51 2.34 51 2 51 C1.67 46.38 1.34 41.76 1 37 C0.505 39.475 0.505 39.475 0 42 C-0.33 42 -0.66 42 -1 42 C-1.20638953 12.86097406 -1.20638953 12.86097406 0 0 Z " fill="#535353" transform="translate(898,381)"/>
<path d="M0 0 C0.33 0 0.66 0 1 0 C1.33 2.97 1.66 5.94 2 9 C2.33 9 2.66 9 3 9 C3.11822138 19.73187415 2.83125944 30.29753477 2 41 C6.29 41 10.58 41 15 41 C15 41.33 15 41.66 15 42 C10.38 42 5.76 42 1 42 C0.92652344 40.30230469 0.92652344 40.30230469 0.8515625 38.5703125 C0.77653486 37.08851661 0.70098703 35.606747 0.625 34.125 C0.57859375 33.00544922 0.57859375 33.00544922 0.53125 31.86328125 C0.44356169 27.46526812 0.44356169 27.46526812 -2 24 C-1.64477539 22.17285156 -1.64477539 22.17285156 -1 20 C-0.8578299 18.41432161 -0.75495959 16.82481368 -0.68359375 15.234375 C-0.64169922 14.34492188 -0.59980469 13.45546875 -0.55664062 12.5390625 C-0.51732422 11.61867188 -0.47800781 10.69828125 -0.4375 9.75 C-0.39431641 8.81414062 -0.35113281 7.87828125 -0.30664062 6.9140625 C-0.2008195 4.60951359 -0.09873443 2.30486161 0 0 Z " fill="#262625" transform="translate(795,415)"/>
<path d="M0 0 C0.33 0 0.66 0 1 0 C1 7.59 1 15.18 1 23 C0.34 23.33 -0.32 23.66 -1 24 C-1.46806645 26.33744294 -1.82669794 28.69739079 -2.125 31.0625 C-2.29257812 32.35285156 -2.46015625 33.64320313 -2.6328125 34.97265625 C-2.75398437 35.97167969 -2.87515625 36.97070312 -3 38 C-3.33 38 -3.66 38 -4 38 C-3.93941406 36.90945313 -3.87882813 35.81890625 -3.81640625 34.6953125 C-3.77652588 33.97472656 -3.73664551 33.25414062 -3.69555664 32.51171875 C-3.60612249 30.90748341 -3.51544508 29.30331695 -3.42358398 27.69921875 C-3.18048437 23.42266704 -2.95854982 19.1470081 -2.78125 14.8671875 C-2.72602173 13.64298096 -2.72602173 13.64298096 -2.66967773 12.39404297 C-2.59911466 10.81786645 -2.53593181 9.24133943 -2.48071289 7.66455078 C-2.22486481 2.22486481 -2.22486481 2.22486481 0 0 Z " fill="#DDDEDF" transform="translate(905,381)"/>
<path d="M0 0 C0.33 0 0.66 0 1 0 C1.02923559 3.85415052 1.04687777 7.70827215 1.0625 11.5625 C1.07087891 12.64853516 1.07925781 13.73457031 1.08789062 14.85351562 C1.12167957 25.97007841 1.12167957 25.97007841 0 31 C-0.66 31.33 -1.32 31.66 -2 32 C-2.22256188 21.09446805 -1.93915661 10.76924476 0 0 Z " fill="#030202" transform="translate(406,414)"/>
<path d="M0 0 C1.91544295 3.55506211 2.51044066 5.91647472 2 10 C0.68799596 11.35432675 -0.64631404 12.68733482 -2 14 C-3.08031617 18.7334906 -3.29588574 23.54097747 -3.5625 28.375 C-3.60568359 29.11105469 -3.64886719 29.84710938 -3.69335938 30.60546875 C-3.79843799 32.40348068 -3.89962093 34.20171958 -4 36 C-4.33 36 -4.66 36 -5 36 C-5.61327042 22.9401706 -5.21439184 12.12346103 0 0 Z " fill="#3A3939" transform="translate(515,391)"/>
<path d="M0 0 C1.32 0 2.64 0 4 0 C4 0.66 4 1.32 4 2 C5.1446875 2.1546875 5.1446875 2.1546875 6.3125 2.3125 C9.17059424 3.04364039 10.15742885 3.76951913 12 6 C10 7.1875 10 7.1875 7 8 C5.11158557 7.24797655 3.22330589 6.49561169 1.3359375 5.7409668 C-2.85939538 4.41019388 -7.12896151 4.42368194 -11.5 4.3125 C-12.4178125 4.27833984 -13.335625 4.24417969 -14.28125 4.20898438 C-16.5207109 4.12733736 -18.7598215 4.05792462 -21 4 C-21 3.67 -21 3.34 -21 3 C-13.08 3 -5.16 3 3 3 C3 2.34 3 1.68 3 1 C2.01 0.67 1.02 0.34 0 0 Z " fill="#505050" transform="translate(876,350)"/>
<path d="M0 0 C3.9166043 -0.0580966 7.83309763 -0.09362893 11.75 -0.125 C12.86117187 -0.14175781 13.97234375 -0.15851563 15.1171875 -0.17578125 C16.72207031 -0.18544922 16.72207031 -0.18544922 18.359375 -0.1953125 C19.34389648 -0.20578613 20.32841797 -0.21625977 21.34277344 -0.22705078 C24.05973111 0.00510382 25.68112513 0.60963727 28 2 C28 2.66 28 3.32 28 4 C18.43 3.34 8.86 2.68 -1 2 C-0.67 1.34 -0.34 0.68 0 0 Z " fill="#020202" transform="translate(567,350)"/>
<path d="M0 0 C0.33 0 0.66 0 1 0 C1 7.59 1 15.18 1 23 C0.34 23 -0.32 23 -1 23 C-2.19960669 19.40117994 -2.16886729 16.41862018 -2.1875 12.625 C-2.20167969 11.31789063 -2.21585938 10.01078125 -2.23046875 8.6640625 C-2.0164804 5.26201037 -1.48144811 3.03316253 0 0 Z " fill="#080707" transform="translate(778,402)"/>
<path d="M0 0 C1.45922693 0.11409593 2.91740598 0.24165544 4.375 0.375 C5.59316406 0.47941406 5.59316406 0.47941406 6.8359375 0.5859375 C9 1 9 1 11 3 C10.67 3.99 10.34 4.98 10 6 C1.75 5.34 -6.5 4.68 -15 4 C-15 3.67 -15 3.34 -15 3 C-7.08 2.505 -7.08 2.505 1 2 C0.67 1.34 0.34 0.68 0 0 Z " fill="#404140" transform="translate(810,350)"/>
<path d="M0 0 C0.33 0 0.66 0 1 0 C1.02911321 3.0833134 1.04683682 6.16659125 1.0625 9.25 C1.07087891 10.12269531 1.07925781 10.99539063 1.08789062 11.89453125 C1.09111328 12.73886719 1.09433594 13.58320313 1.09765625 14.453125 C1.10289307 15.22817383 1.10812988 16.00322266 1.11352539 16.80175781 C1.00036998 18.99283598 0.60552448 20.89637861 0 23 C-0.66 23 -1.32 23 -2 23 C-2.05447822 20.47886908 -2.09389852 17.9589415 -2.125 15.4375 C-2.14175781 14.73302734 -2.15851563 14.02855469 -2.17578125 13.30273438 C-2.22022044 8.48108178 -1.52768004 4.57702562 0 0 Z " fill="#020101" transform="translate(488,431)"/>
<path d="M0 0 C0.33 0 0.66 0 1 0 C0.32418477 6.08233706 -0.73638028 12.01314152 -2 18 C-2.33 18 -2.66 18 -3 18 C-3.103125 17.21625 -3.20625 16.4325 -3.3125 15.625 C-3.77595022 12.66954819 -3.77595022 12.66954819 -7 11 C-7 10.34 -7 9.68 -7 9 C-6.34 9 -5.68 9 -5 9 C-4.731875 8.2575 -4.46375 7.515 -4.1875 6.75 C-3.05336685 4.12358639 -1.84835933 2.16981312 0 0 Z " fill="#0C0C0C" transform="translate(523,382)"/>
<path d="M0 0 C3.27081471 -0.02902429 6.5415963 -0.04680684 9.8125 -0.0625 C10.74126953 -0.07087891 11.67003906 -0.07925781 12.62695312 -0.08789062 C13.51962891 -0.09111328 14.41230469 -0.09433594 15.33203125 -0.09765625 C16.56530151 -0.10551147 16.56530151 -0.10551147 17.82348633 -0.11352539 C20 0 20 0 23 1 C23 1.66 23 2.32 23 3 C15.08 2.67 7.16 2.34 -1 2 C-0.67 1.34 -0.34 0.68 0 0 Z " fill="#040504" transform="translate(856,350)"/>
<path d="M0 0 C0.66 0 1.32 0 2 0 C3.44207941 2.88415883 3.09394887 5.41721528 3.0625 8.625 C3.05347656 9.81351562 3.04445313 11.00203125 3.03515625 12.2265625 C3.02355469 13.14179688 3.01195312 14.05703125 3 15 C2.34 14.34 1.68 13.68 1 13 C-2.35744112 12.75622117 -2.35744112 12.75622117 -6.125 12.875 C-7.40632813 12.89304687 -8.68765625 12.91109375 -10.0078125 12.9296875 C-10.99523437 12.95289063 -11.98265625 12.97609375 -13 13 C-13 12.67 -13 12.34 -13 12 C-8.71 12 -4.42 12 0 12 C0 8.04 0 4.08 0 0 Z " fill="#1C1D1C" transform="translate(402,444)"/>
<path d="M0 0 C0.33 0.99 0.66 1.98 1 3 C1.66 3.33 2.32 3.66 3 4 C0.69 6.31 -1.62 8.62 -4 11 C-4.99 10.67 -5.98 10.34 -7 10 C-7.99 10 -8.98 10 -10 10 C-6.7 6.7 -3.4 3.4 0 0 Z " fill="#292928" transform="translate(537,361)"/>
<path d="M0 0 C5.94 0.66 11.88 1.32 18 2 C16.68 2.33 15.36 2.66 14 3 C14 3.66 14 4.32 14 5 C10.04 5 6.08 5 2 5 C1.34 3.35 0.68 1.7 0 0 Z " fill="#F0F4F5" transform="translate(643,470)"/>
<path d="M0 0 C0.99 0.33 1.98 0.66 3 1 C1.40758051 4.18483898 -1.17277494 6.52417987 -3.625 9.0625 C-4.13417969 9.61744141 -4.64335938 10.17238281 -5.16796875 10.74414062 C-8.88691397 14.57027349 -11.47582233 15.77040571 -17 16 C-14.93689506 14.44798242 -12.86936506 12.90501368 -10.78125 11.38671875 C-6.19186289 7.96825403 -2.80818251 5.00589055 0 0 Z " fill="#D7D8D8" transform="translate(617,449)"/>
<path d="M0 0 C0.33 0 0.66 0 1 0 C1.16207546 11.03913945 0.65764731 21.98440762 0 33 C-0.33 33 -0.66 33 -1 33 C-1.33 24.42 -1.66 15.84 -2 7 C-1.67 7 -1.34 7 -1 7 C-0.67 4.69 -0.34 2.38 0 0 Z " fill="#1B1A19" transform="translate(364,413)"/>
<path d="M0 0 C2.01822917 0.06510417 4.03645833 0.13020833 6.0546875 0.1953125 C6.3846875 1.1853125 6.7146875 2.1753125 7.0546875 3.1953125 C5.09002337 4.26306474 3.08613391 5.26084715 1.0546875 6.1953125 C0.3946875 5.8653125 -0.2653125 5.5353125 -0.9453125 5.1953125 C-0.9453125 4.5353125 -0.9453125 3.8753125 -0.9453125 3.1953125 C-1.6053125 3.1953125 -2.2653125 3.1953125 -2.9453125 3.1953125 C-2.9453125 5.5053125 -2.9453125 7.8153125 -2.9453125 10.1953125 C-3.2753125 10.1953125 -3.6053125 10.1953125 -3.9453125 10.1953125 C-4.140625 4.140625 -4.140625 4.140625 -3.9453125 2.1953125 C-1.9453125 0.1953125 -1.9453125 0.1953125 0 0 Z " fill="#222421" transform="translate(850.9453125,457.8046875)"/>
<path d="M0 0 C4.83256305 0.41421969 6.82679218 2.46413986 10 6 C9.67 6.99 9.34 7.98 9 9 C4.5937814 7.65365543 2.56922298 5.80625626 0 2 C0 1.34 0 0.68 0 0 Z " fill="#101110" transform="translate(713,358)"/>
<path d="M0 0 C-0.33 0.66 -0.66 1.32 -1 2 C0.65 2.33 2.3 2.66 4 3 C4 3.33 4 3.66 4 4 C2.98679687 4.19916016 2.98679687 4.19916016 1.953125 4.40234375 C0.61507812 4.66724609 0.61507812 4.66724609 -0.75 4.9375 C-1.63171875 5.11152344 -2.5134375 5.28554688 -3.421875 5.46484375 C-5.63235053 5.92368488 -7.81512068 6.43336074 -10 7 C-9.01 6.01 -8.02 5.02 -7 4 C-8.65 3.67 -10.3 3.34 -12 3 C-7.78372195 0.18914797 -4.97048208 -0.11045516 0 0 Z " fill="#353635" transform="translate(661,351)"/>
<path d="M0 0 C0.33 0 0.66 0 1 0 C1.33 2.64 1.66 5.28 2 8 C2.33 6.35 2.66 4.7 3 3 C3.33 3 3.66 3 4 3 C3.67 10.26 3.34 17.52 3 25 C2.67 25 2.34 25 2 25 C1.67 20.38 1.34 15.76 1 11 C-1.31 10.67 -3.62 10.34 -6 10 C-6 9.67 -6 9.34 -6 9 C-4.02 9 -2.04 9 0 9 C0 6.03 0 3.06 0 0 Z " fill="#4C4C4E" transform="translate(368,328)"/>
<path d="M0 0 C0.33 0 0.66 0 1 0 C1.33 3.3 1.66 6.6 2 10 C2.66 7.69 3.32 5.38 4 3 C4.33 3 4.66 3 5 3 C4.88660796 5.64680904 4.75987127 8.29177518 4.625 10.9375 C4.5940625 11.69224609 4.563125 12.44699219 4.53125 13.22460938 C4.4273685 15.15507395 4.22104386 17.07942081 4 19 C3.34 19.33 2.68 19.66 2 20 C2 17.69 2 15.38 2 13 C1.34 14.32 0.68 15.64 0 17 C0 11.39 0 5.78 0 0 Z " fill="#3B3A3A" transform="translate(895,439)"/>
<path d="M0 0 C6.52307692 1.47692308 6.52307692 1.47692308 8.9375 4.125 C9.288125 4.74375 9.63875 5.3625 10 6 C9.01 6.99 8.02 7.98 7 9 C1.21538462 4.56923077 1.21538462 4.56923077 0.125 1.6875 C0.08375 1.130625 0.0425 0.57375 0 0 Z " fill="#181819" transform="translate(606,358)"/>
<path d="M0 0 C0.33 0 0.66 0 1 0 C1 4.29 1 8.58 1 13 C1.66 13.33 2.32 13.66 3 14 C1 16 1 16 -1.625 16.125 C-2.40875 16.08375 -3.1925 16.0425 -4 16 C-4 18.97 -4 21.94 -4 25 C-4.33 25 -4.66 25 -5 25 C-5 21.7 -5 18.4 -5 15 C-3.68 15 -2.36 15 -1 15 C-1 14.34 -1 13.68 -1 13 C-2.32 12.67 -3.64 12.34 -5 12 C-3.35 12 -1.7 12 0 12 C0 8.04 0 4.08 0 0 Z " fill="#515151" transform="translate(528,348)"/>
<path d="M0 0 C0.33 0 0.66 0 1 0 C1 4.62 1 9.24 1 14 C0.01 14.33 -0.98 14.66 -2 15 C-2.3690205 4.44191344 -2.3690205 4.44191344 0 0 Z " fill="#040404" transform="translate(776,437)"/>
<path d="M0 0 C-0.33 0.33 -0.66 0.66 -1 1 C0.65 1.33 2.3 1.66 4 2 C4 2.33 4 2.66 4 3 C0.7 3.66 -2.6 4.32 -6 5 C-6 4.34 -6 3.68 -6 3 C-7.65 3.33 -9.3 3.66 -11 4 C-4.45754717 -1.33726415 -4.45754717 -1.33726415 0 0 Z " fill="#333333" transform="translate(850,352)"/>
<path d="M0 0 C2.33294775 -0.04241723 4.66702567 -0.04092937 7 0 C8 1 8 1 8.09765625 3.06640625 C8.08605469 3.89011719 8.07445312 4.71382813 8.0625 5.5625 C8.05347656 6.38878906 8.04445313 7.21507812 8.03515625 8.06640625 C8.02355469 8.70449219 8.01195312 9.34257812 8 10 C7.67 10 7.34 10 7 10 C6.67 8.02 6.34 6.04 6 4 C1.71 3.67 -2.58 3.34 -7 3 C-7 2.67 -7 2.34 -7 2 C-4.69 2 -2.38 2 0 2 C0 1.34 0 0.68 0 0 Z " fill="#121212" transform="translate(406,326)"/>
<path d="M0 0 C0.625 1.8125 0.625 1.8125 1 4 C0.01 5.485 0.01 5.485 -1 7 C-1.33 6.34 -1.66 5.68 -2 5 C-2.50660156 5.86625 -2.50660156 5.86625 -3.0234375 6.75 C-3.69246094 7.86375 -3.69246094 7.86375 -4.375 9 C-4.81585937 9.7425 -5.25671875 10.485 -5.7109375 11.25 C-6.13632812 11.8275 -6.56171875 12.405 -7 13 C-7.66 13 -8.32 13 -9 13 C-6.04545455 3.22727273 -6.04545455 3.22727273 -1.8125 0.6875 C-0.9153125 0.3471875 -0.9153125 0.3471875 0 0 Z " fill="#212222" transform="translate(525,378)"/>
<path d="M0 0 C1.64666203 0.1135629 3.29236082 0.24117381 4.9375 0.375 C5.85402344 0.44460938 6.77054688 0.51421875 7.71484375 0.5859375 C8.84599609 0.79089844 8.84599609 0.79089844 10 1 C10.33 1.66 10.66 2.32 11 3 C13.01669827 4.13350534 13.01669827 4.13350534 15 5 C11.42619658 6.19126781 9.49116698 5.7349445 5.8125 5.0625 C4.72582031 4.86785156 3.63914062 4.67320312 2.51953125 4.47265625 C1.27236328 4.23869141 1.27236328 4.23869141 0 4 C1.32 3.34 2.64 2.68 4 2 C2.68 1.34 1.36 0.68 0 0 Z " fill="#1E1E1E" transform="translate(692,350)"/>
<path d="M0 0 C2.06298828 -0.34057617 2.06298828 -0.34057617 4.5703125 -0.29296875 C5.46621094 -0.28330078 6.36210938 -0.27363281 7.28515625 -0.26367188 C8.69087891 -0.2259668 8.69087891 -0.2259668 10.125 -0.1875 C11.06988281 -0.17396484 12.01476562 -0.16042969 12.98828125 -0.14648438 C15.32608779 -0.11106306 17.66276237 -0.06167271 20 0 C20 0.33 20 0.66 20 1 C19.00097656 1.06058594 18.00195312 1.12117188 16.97265625 1.18359375 C15.68230469 1.26738281 14.39195312 1.35117187 13.0625 1.4375 C11.77472656 1.51871094 10.48695313 1.59992188 9.16015625 1.68359375 C6.13976043 1.64919188 6.13976043 1.64919188 5 3 C2.66702567 3.04092937 0.33294775 3.04241723 -2 3 C-1.34 2.01 -0.68 1.02 0 0 Z " fill="#ECEFEE" transform="translate(557,472)"/>
<path d="M0 0 C0.33 0 0.66 0 1 0 C1 1.65 1 3.3 1 5 C-2.90452342 6.30150781 -6.20460309 5.62254053 -10.1875 5.0625 C-10.93708984 4.96259766 -11.68667969 4.86269531 -12.45898438 4.75976562 C-14.30681482 4.51260359 -16.1535266 4.25710389 -18 4 C-18 3.67 -18 3.34 -18 3 C-9.585 2.505 -9.585 2.505 -1 2 C-0.67 1.34 -0.34 0.68 0 0 Z " fill="#030504" transform="translate(836,454)"/>
<path d="M0 0 C0.33 0 0.66 0 1 0 C1 1.65 1 3.3 1 5 C-5.93 4.67 -12.86 4.34 -20 4 C-20 3.67 -20 3.34 -20 3 C-13.73 3 -7.46 3 -1 3 C-0.67 2.01 -0.34 1.02 0 0 Z " fill="#070808" transform="translate(775,454)"/>
<path d="M0 0 C2.18975773 3.28463659 2.99806563 6.20696275 4 10 C3.34 10 2.68 10 2 10 C1.67 10.99 1.34 11.98 1 13 C0.01 9.7 -0.98 6.4 -2 3 C-1.34 3 -0.68 3 0 3 C0 2.01 0 1.02 0 0 Z " fill="#D0CFCE" transform="translate(627,371)"/>
<path d="M0 0 C1.32 0 2.64 0 4 0 C4 2.97 4 5.94 4 9 C-0.875 4.25 -0.875 4.25 -2 2 C-1.34 2 -0.68 2 0 2 C0 1.34 0 0.68 0 0 Z " fill="#787673" transform="translate(613,429)"/>
<path d="M0 0 C0.99 0.33 1.98 0.66 3 1 C1.25 4 1.25 4 -1 7 C-2.32 7 -3.64 7 -5 7 C-4.6189482 4.23737447 -4.16402868 3.15856106 -2.125 1.1875 C-1.42375 0.795625 -0.7225 0.40375 0 0 Z " fill="#181818" transform="translate(543,357)"/>
<path d="M0 0 C0 0.99 0 1.98 0 3 C-2.31 4.32 -4.62 5.64 -7 7 C-7 6.01 -7 5.02 -7 4 C-7.66 3.67 -8.32 3.34 -9 3 C-2.25 0 -2.25 0 0 0 Z " fill="#232323" transform="translate(844,355)"/>
<path d="M0 0 C0.33 0 0.66 0 1 0 C1.33 1.65 1.66 3.3 2 5 C2.33 5 2.66 5 3 5 C3 9.95 3 14.9 3 20 C2.67 20 2.34 20 2 20 C1.67 16.7 1.34 13.4 1 10 C0.67 10 0.34 10 0 10 C0 6.7 0 3.4 0 0 Z " fill="#111011" transform="translate(487,422)"/>
<path d="M0 0 C0 2.31 0 4.62 0 7 C-1.32 7.33 -2.64 7.66 -4 8 C-4.75 6.25 -4.75 6.25 -5 4 C-1.66666667 0 -1.66666667 0 0 0 Z " fill="#0A0A0A" transform="translate(517,401)"/>
<path d="M0 0 C0.66 0.33 1.32 0.66 2 1 C1.34 1.66 0.68 2.32 0 3 C-0.6425235 5.06874034 -0.6425235 5.06874034 -1 7 C-1.598125 7.12375 -2.19625 7.2475 -2.8125 7.375 C-5.26231348 7.95475985 -5.26231348 7.95475985 -8 10 C-6.44303593 6.17836093 -3.96591316 3.81381505 -1 1 C-0.67 0.67 -0.34 0.34 0 0 Z " fill="#323233" transform="translate(567,381)"/>
<path d="M0 0 C0.33 0 0.66 0 1 0 C1 6.6 1 13.2 1 20 C0.01 19.67 -0.98 19.34 -2 19 C-2 18.01 -2 17.02 -2 16 C-1.34 16 -0.68 16 0 16 C0 10.72 0 5.44 0 0 Z " fill="#737375" transform="translate(731,364)"/>
<path d="M0 0 C1.32 1.32 2.64 2.64 4 4 C3.67 4.66 3.34 5.32 3 6 C2.34 5.67 1.68 5.34 1 5 C1.33 6.65 1.66 8.3 2 10 C-0.01136276 7.44008376 -1.62845496 4.95409701 -3 2 C-2.01 1.34 -1.02 0.68 0 0 Z " fill="#292A2A" transform="translate(723,365)"/>
<path d="M0 0 C2.83444974 2.83444974 2.79638309 5.06340644 3 9 C1.51171875 11.2265625 1.51171875 11.2265625 0 13 C-0.19466332 11.20909747 -0.38051213 9.41723495 -0.5625 7.625 C-0.66691406 6.62726563 -0.77132812 5.62953125 -0.87890625 4.6015625 C-1 2 -1 2 0 0 Z " fill="#0A0909" transform="translate(899,375)"/>
<path d="M0 0 C0.66 0.33 1.32 0.66 2 1 C1.67 1.66 1.34 2.32 1 3 C0.34 3 -0.32 3 -1 3 C-0.67 2.01 -0.34 1.02 0 0 Z M-9 2 C-7.68 2 -6.36 2 -5 2 C-5 2.66 -5 3.32 -5 4 C-3.68 4.33 -2.36 4.66 -1 5 C-1 5.66 -1 6.32 -1 7 C-4.37503669 5.8141763 -6.64722731 4.72426311 -9 2 Z " fill="#242524" transform="translate(639,461)"/>
<path d="M0 0 C0.33 0 0.66 0 1 0 C1.33 4.29 1.66 8.58 2 13 C1.34 13 0.68 13 0 13 C0 15.31 0 17.62 0 20 C-0.33 20 -0.66 20 -1 20 C-1.12910853 13.25766581 -0.797837 6.69613196 0 0 Z " fill="#504F51" transform="translate(354,442)"/>
<path d="M0 0 C2.475 0.99 2.475 0.99 5 2 C4.01 2.99 3.02 3.98 2 5 C-1.3 4.01 -4.6 3.02 -8 2 C-8 1.67 -8 1.34 -8 1 C-5.36 1.33 -2.72 1.66 0 2 C0 1.34 0 0.68 0 0 Z " fill="#3D3D3D" transform="translate(883,353)"/>
<path d="M0 0 C3.79588866 0.54226981 5.47211993 2.20127563 8 5 C6.68 4.67 5.36 4.34 4 4 C3.67 4.66 3.34 5.32 3 6 C2.01 5.34 1.02 4.68 0 4 C0 2.68 0 1.36 0 0 Z " fill="#212121" transform="translate(820,353)"/>
<path d="M0 0 C0.33 0.66 0.66 1.32 1 2 C3.02463255 2.65213292 3.02463255 2.65213292 5 3 C4.01 3.495 4.01 3.495 3 4 C2.5316735 6.58605332 2.5316735 6.58605332 2.375 9.5625 C2.30023438 10.57441406 2.22546875 11.58632813 2.1484375 12.62890625 C2.09945313 13.41136719 2.05046875 14.19382812 2 15 C1.67 15 1.34 15 1 15 C0.93941406 14.32453125 0.87882812 13.6490625 0.81640625 12.953125 C0.73261719 12.06109375 0.64882813 11.1690625 0.5625 10.25 C0.48128906 9.36828125 0.40007812 8.4865625 0.31640625 7.578125 C0.06285099 5.0309789 0.06285099 5.0309789 -0.59765625 2.734375 C-0.73042969 2.16203125 -0.86320312 1.5896875 -1 1 C-0.67 0.67 -0.34 0.34 0 0 Z " fill="#2B2B2A" transform="translate(418,326)"/>
<path d="M0 0 C0.33 0 0.66 0 1 0 C1 1.98 1 3.96 1 6 C4.96 6 8.92 6 13 6 C13 6.33 13 6.66 13 7 C8.05 7.33 3.1 7.66 -2 8 C-2 7.34 -2 6.68 -2 6 C-1.34 6 -0.68 6 0 6 C0 4.02 0 2.04 0 0 Z " fill="#363937" transform="translate(856,450)"/>
<path d="M0 0 C0 0.66 0 1.32 0 2 C0.66 2.33 1.32 2.66 2 3 C0.02 4.32 -1.96 5.64 -4 7 C-4.6875 5.1875 -4.6875 5.1875 -5 3 C-3.38441968 0.84589291 -2.74502455 0 0 0 Z " fill="#242525" transform="translate(640,400)"/>
<path d="M0 0 C2.64 0.33 5.28 0.66 8 1 C5.73814546 3.26185454 4.03016439 4.03921617 1 5 C0.01 4.67 -0.98 4.34 -2 4 C-1.34 4 -0.68 4 0 4 C0 2.68 0 1.36 0 0 Z " fill="#272727" transform="translate(590,464)"/>
<path d="M0 0 C1.98 0.99 1.98 0.99 4 2 C3.01 4.64 2.02 7.28 1 10 C0.67 10 0.34 10 0 10 C0 6.7 0 3.4 0 0 Z " fill="#0F0F10" transform="translate(369,327)"/>
<path d="M0 0 C0.66 0.33 1.32 0.66 2 1 C1.3503125 1.5878125 1.3503125 1.5878125 0.6875 2.1875 C-1.13582629 4.01796997 -1.13582629 4.01796997 -2.5625 6.625 C-4 9 -4 9 -6 10 C-4.79157144 5.56909529 -3.48331435 3.01887244 0 0 Z " fill="#2E2E2E" transform="translate(844,387)"/>
<path d="M0 0 C0.33 0 0.66 0 1 0 C1 3.3 1 6.6 1 10 C0.34 10 -0.32 10 -1 10 C-1.33 7.36 -1.66 4.72 -2 2 C-1.34 2 -0.68 2 0 2 C0 1.34 0 0.68 0 0 Z " fill="#E7E7E8" transform="translate(730,370)"/>
<path d="M0 0 C5.75 0.75 5.75 0.75 8 3 C7.01 3.33 6.02 3.66 5 4 C4.01 4.495 4.01 4.495 3 5 C1.5 3.625 1.5 3.625 0 2 C0 1.34 0 0.68 0 0 Z " fill="#20201F" transform="translate(602,356)"/>
<path d="M0 0 C2.25 -0.25 2.25 -0.25 5 0 C7.3125 2 7.3125 2 9 4 C8.4225 3.835 7.845 3.67 7.25 3.5 C4.73335631 2.85537969 4.73335631 2.85537969 1 3 C0.67 2.01 0.34 1.02 0 0 Z " fill="#202021" transform="translate(884,356)"/>
<path d="M0 0 C0 0.66 0 1.32 0 2 C1.32 2.66 2.64 3.32 4 4 C2.02 4.33 0.04 4.66 -2 5 C-2 4.34 -2 3.68 -2 3 C-3.65 3 -5.3 3 -7 3 C-3.375 0 -3.375 0 0 0 Z " fill="#373737" transform="translate(556,352)"/>
<path d="M0 0 C2.31 0.66 4.62 1.32 7 2 C6.01 3.485 6.01 3.485 5 5 C3.68 4.67 2.36 4.34 1 4 C0.67 2.68 0.34 1.36 0 0 Z " fill="#E2E4E4" transform="translate(643,470)"/>
<path d="M0 0 C0.66 0.33 1.32 0.66 2 1 C2 3.31 2 5.62 2 8 C1.01 8 0.02 8 -1 8 C-1.04241723 5.66705225 -1.04092937 3.33297433 -1 1 C-0.67 0.67 -0.34 0.34 0 0 Z " fill="#070606" transform="translate(686,418)"/>
<path d="M0 0 C3.37503669 1.1858237 5.64722731 2.27573689 8 5 C6.35 5.66 4.7 6.32 3 7 C3 5.35 3 3.7 3 2 C2.01 1.67 1.02 1.34 0 1 C0 0.67 0 0.34 0 0 Z " fill="#2D2D2D" transform="translate(680,382)"/>
<path d="M0 0 C0.99 0.33 1.98 0.66 3 1 C3.33 2.98 3.66 4.96 4 7 C3.01 6.67 2.02 6.34 1 6 C0.67 4.02 0.34 2.04 0 0 Z " fill="#0A0909" transform="translate(625,381)"/>
<path d="M0 0 C-0.66 1.65 -1.32 3.3 -2 5 C-2.99 5 -3.98 5 -5 5 C-5 3.68 -5 2.36 -5 1 C-3 0 -3 0 0 0 Z " fill="#040304" transform="translate(639,460)"/>
<path d="M0 0 C0.33 0 0.66 0 1 0 C2.42857143 8.42857143 2.42857143 8.42857143 0 13 C-0.33 13 -0.66 13 -1 13 C-1.07654536 8.48382401 -1.10228696 4.40914783 0 0 Z " fill="#3C3A3B" transform="translate(441,387)"/>
<path d="M0 0 C0.99 0 1.98 0 3 0 C3.33 1.32 3.66 2.64 4 4 C3.34 4 2.68 4 2 4 C2 5.98 2 7.96 2 10 C1.67 10 1.34 10 1 10 C0.67 6.7 0.34 3.4 0 0 Z " fill="#DBDBDA" transform="translate(629,381)"/>
<path d="M0 0 C0.66 0.33 1.32 0.66 2 1 C1.34 3.64 0.68 6.28 0 9 C-0.66 8.67 -1.32 8.34 -2 8 C-2.125 5.125 -2.125 5.125 -2 2 C-1.34 1.34 -0.68 0.68 0 0 Z " fill="#3E3D3C" transform="translate(636,359)"/>
<path d="M0 0 C1.32 0.33 2.64 0.66 4 1 C1.36 2.98 -1.28 4.96 -4 7 C-4 5.68 -4 4.36 -4 3 C-2.68 2.67 -1.36 2.34 0 2 C0 1.34 0 0.68 0 0 Z " fill="#373636" transform="translate(781,357)"/>
<path d="M0 0 C0.99 0.33 1.98 0.66 3 1 C3 1.66 3 2.32 3 3 C4.32 3.66 5.64 4.32 7 5 C3.625 5.125 3.625 5.125 0 5 C-0.66 4.34 -1.32 3.68 -2 3 C-1.34 3 -0.68 3 0 3 C0 2.01 0 1.02 0 0 Z " fill="#757575" transform="translate(672,427)"/>
<path d="M0 0 C0.66 0.33 1.32 0.66 2 1 C1.42655063 3.86724686 1.1385485 4.8614515 -1 7 C-1.66 5.68 -2.32 4.36 -3 3 C-2.01 2.01 -1.02 1.02 0 0 Z " fill="#191919" transform="translate(634,404)"/>
<path d="M0 0 C0.66 1.32 1.32 2.64 2 4 C-0.97 6.475 -0.97 6.475 -4 9 C-3.6875 7.0625 -3.6875 7.0625 -3 5 C-2.01 4.67 -1.02 4.34 0 4 C0 2.68 0 1.36 0 0 Z " fill="#CFCECF" transform="translate(637,396)"/>
<path d="M0 0 C-0.33 0.99 -0.66 1.98 -1 3 C-5.875 1.25 -5.875 1.25 -7 -1 C-3.51418144 -2.2020064 -3.32007656 -2.21338437 0 0 Z " fill="#1C1D1E" transform="translate(723,364)"/>
<path d="M0 0 C0.66 0 1.32 0 2 0 C1.6875 1.875 1.6875 1.875 1 4 C0.01 4.66 -0.98 5.32 -2 6 C-2.66 4.68 -3.32 3.36 -4 2 C-2.68 2 -1.36 2 0 2 C0 1.34 0 0.68 0 0 Z " fill="#121111" transform="translate(835,359)"/>
<path d="M0 0 C0.99 0.33 1.98 0.66 3 1 C2.34 2.98 1.68 4.96 1 7 C0.01 7 -0.98 7 -2 7 C-1.42415568 4.61435923 -0.77772405 2.33317216 0 0 Z " fill="#070707" transform="translate(613,447)"/>
</svg>
